<svg width="512" height="512" version="1.1" xmlns="http://www.w3.org/2000/svg"><path fill="rgb(0,0,0)" stroke="rgb(0,0,0)" stroke-width="1" opacity="0" d="M 0 0 L 511.5 0 L 512 0.5 L 512 137.5 L 511 137.5 Q 509.88 132.13 505.5 130 L 377.5 34 L 373.5 32 L 363.5 32 Q 357.42 33.92 354 38.5 L 352 42.5 L 352 96 L 285.5 96 L 284.5 97 L 272.5 98 L 271.5 99 L 267.5 99 L 266.5 100 L 251.5 103 L 237.5 109 L 235.5 109 L 224.5 115 L 222.5 115 L 205.5 125 L 186.5 140 L 172 154.5 L 157 173.5 L 148 188.5 L 136 216.5 L 134 226.5 L 133 227.5 L 133 230.5 L 132 231.5 L 132 234.5 L 131 235.5 L 130 246.5 L 129 247.5 Q 130.25 252.25 128 253.5 L 128 277.5 L 134.5 286 L 139.5 288 L 149.5 288 Q 154.33 286.33 157 282.5 L 168 261.5 L 174 252.5 Q 185.09 237.09 199.5 225 L 216.5 213 L 233.5 204 L 235.5 204 L 238.5 202 L 250.5 198 L 257.5 197 L 262.5 195 L 274.5 194 L 275.5 193 L 290.5 193 L 291.5 192 L 352 192 L 352 245.5 Q 353.67 250.33 357.5 253 L 363.5 256 L 373.5 256 L 377.5 254 L 505.5 158 L 510 153.5 L 511.5 150 L 512 512 L 0.5 512 L 0 511.5 L 0 456.5 L 1 456.5 L 3 463.5 L 9.5 472 L 16.5 477 L 24.5 480 L 391.5 480 L 399.5 477 L 408 470.5 L 413 463.5 L 416 455.5 L 416 289 L 352 289 L 352 416 L 64 416 L 64 128.5 L 64.5 128 L 160 128 L 160 64 L 24.5 64 L 18.5 66 L 8 73.5 L 2 82.5 L 0.5 88 L 0 0 Z "></path><path fill="rgb(32,150,242)" stroke="rgb(32,150,242)" stroke-width="1" opacity="0.49411764705882355" d="M 363.5 32 L 366 32.5 L 363.5 33 L 363.5 32 Z "></path><path fill="rgb(32,150,242)" stroke="rgb(32,150,242)" stroke-width="1" opacity="0.49411764705882355" d="M 370.5 32 L 373.5 32 L 377.5 34 L 505.5 130 L 510 134.5 L 512 138.5 L 512 141.5 L 511 141.5 Q 510.47 134.03 505.5 131 L 377.5 35 L 373.5 33 L 370.5 33 L 370.5 32 Z "></path><path fill="rgb(32,150,242)" stroke="rgb(32,150,242)" stroke-width="1" opacity="0.49411764705882355" d="M 360.5 33 L 362 33.5 L 356 37.5 L 353 42.5 L 352.5 46 L 352 42.5 Q 353.67 37.67 357.5 35 L 360.5 33 Z "></path><path fill="rgb(32,150,242)" stroke="rgb(32,150,242)" stroke-width="1" opacity="0.49411764705882355" d="M 285.5 96 L 299 96.5 L 285.5 97 L 285.5 96 Z "></path><path fill="rgb(32,150,242)" stroke="rgb(32,150,242)" stroke-width="1" opacity="0.49411764705882355" d="M 279.5 97 L 284 97.5 L 279.5 98 L 279.5 97 Z "></path><path fill="rgb(32,150,242)" stroke="rgb(32,150,242)" stroke-width="1" opacity="0.49411764705882355" d="M 272.5 98 L 277 98.5 L 272.5 99 L 272.5 98 Z "></path><path fill="rgb(32,150,242)" stroke="rgb(32,150,242)" stroke-width="1" opacity="0.49411764705882355" d="M 267.5 99 L 271 99.5 L 267.5 100 L 267.5 99 Z "></path><path fill="rgb(32,150,242)" stroke="rgb(32,150,242)" stroke-width="1" opacity="0.49411764705882355" d="M 263.5 100 L 266 100.5 L 263.5 101 L 263.5 100 Z "></path><path fill="rgb(32,150,242)" stroke="rgb(32,150,242)" stroke-width="1" opacity="0.49411764705882355" d="M 259.5 101 L 262 101.5 L 259.5 102 L 259.5 101 Z "></path><path fill="rgb(32,150,242)" stroke="rgb(32,150,242)" stroke-width="1" opacity="0.49411764705882355" d="M 255.5 102 L 258 102.5 L 255.5 103 L 255.5 102 Z "></path><path fill="rgb(32,150,242)" stroke="rgb(32,150,242)" stroke-width="1" opacity="0.49411764705882355" d="M 251.5 103 L 254 103.5 L 246.5 106 L 246.5 105 L 251.5 103 Z "></path><path fill="rgb(32,150,242)" stroke="rgb(32,150,242)" stroke-width="1" opacity="0.49411764705882355" d="M 243.5 106 L 245 106.5 L 238.5 109 L 238.5 108 L 243.5 106 Z "></path><path fill="rgb(32,150,242)" stroke="rgb(32,150,242)" stroke-width="1" opacity="0.49411764705882355" d="M 235.5 109 L 237 109.5 L 227.5 114 L 227.5 113 L 235.5 109 Z "></path><path fill="rgb(32,150,242)" stroke="rgb(32,150,242)" stroke-width="1" opacity="0.49411764705882355" d="M 225.5 114 L 225.5 115 L 225.5 114 Z "></path><path fill="rgb(32,150,242)" stroke="rgb(32,150,242)" stroke-width="1" opacity="0.49411764705882355" d="M 222.5 115 L 224 115.5 L 205.5 126 L 193.5 135 L 175 152.5 L 158 173.5 L 147.5 192 L 147 190.5 L 157 173.5 L 166 161.5 L 186.5 140 L 205.5 125 L 222.5 115 Z "></path><path fill="rgb(32,150,242)" stroke="rgb(32,150,242)" stroke-width="1" opacity="0.49411764705882355" d="M 511.5 146 L 512 149.5 Q 510 155 505.5 158 L 377.5 254 L 373.5 256 L 370.5 256 L 370.5 255 L 373.5 255 L 377.5 253 L 509 153.5 L 511.5 146 Z "></path><path fill="rgb(32,150,242)" stroke="rgb(32,150,242)" stroke-width="1" opacity="0.49411764705882355" d="M 277.5 192 L 291 192.5 L 277.5 193 L 277.5 192 Z "></path><path fill="rgb(32,150,242)" stroke="rgb(32,150,242)" stroke-width="1" opacity="0.49411764705882355" d="M 146.5 193 L 146.5 194 L 146.5 193 Z "></path><path fill="rgb(32,150,242)" stroke="rgb(32,150,242)" stroke-width="1" opacity="0.49411764705882355" d="M 269.5 193 L 275 193.5 L 269.5 194 L 269.5 193 Z "></path><path fill="rgb(32,150,242)" stroke="rgb(32,150,242)" stroke-width="1" opacity="0.49411764705882355" d="M 263.5 194 L 268 194.5 L 263.5 195 L 263.5 194 Z "></path><path fill="rgb(32,150,242)" stroke="rgb(32,150,242)" stroke-width="1" opacity="0.49411764705882355" d="M 145.5 195 L 146 196.5 L 141.5 205 L 141 203.5 L 145.5 195 Z "></path><path fill="rgb(32,150,242)" stroke="rgb(32,150,242)" stroke-width="1" opacity="0.49411764705882355" d="M 258.5 195 L 262 195.5 L 254.5 197 L 253.5 198 L 250.5 198 L 239.5 202 L 239.5 201 L 250.5 197 L 257.5 196 L 258.5 195 Z "></path><path fill="rgb(32,150,242)" stroke="rgb(32,150,242)" stroke-width="1" opacity="0.49411764705882355" d="M 236.5 202 L 238 202.5 L 234.5 204 L 234.5 203 L 236.5 202 Z "></path><path fill="rgb(32,150,242)" stroke="rgb(32,150,242)" stroke-width="1" opacity="0.49411764705882355" d="M 231.5 204 L 233 204.5 L 222.5 210 Q 221 209 223.5 208 L 231.5 204 Z "></path><path fill="rgb(32,150,242)" stroke="rgb(32,150,242)" stroke-width="1" opacity="0.49411764705882355" d="M 140.5 206 L 141 207.5 L 138.5 213 L 138 211.5 L 140.5 206 Z "></path><path fill="rgb(32,150,242)" stroke="rgb(32,150,242)" stroke-width="1" opacity="0.49411764705882355" d="M 220.5 210 Q 222 211 219.5 212 L 216.5 213 L 199.5 225 L 181 243.5 L 168 261.5 L 159 279.5 L 153.5 286 L 149.5 288 L 146.5 288 L 146.5 287 L 149.5 287 L 156 282.5 L 167 261.5 L 173 252.5 L 192.5 230 L 204.5 220 L 220.5 210 Z "></path><path fill="rgb(32,150,242)" stroke="rgb(32,150,242)" stroke-width="1" opacity="0.49411764705882355" d="M 137.5 214 L 138 215.5 L 135.5 222 L 135 219.5 L 137.5 214 Z "></path><path fill="rgb(32,150,242)" stroke="rgb(32,150,242)" stroke-width="1" opacity="0.49411764705882355" d="M 134.5 223 L 135 225.5 L 134 225.5 L 134.5 223 Z "></path><path fill="rgb(32,150,242)" stroke="rgb(32,150,242)" stroke-width="1" opacity="0.49411764705882355" d="M 133.5 227 L 134 229.5 L 133 229.5 L 133.5 227 Z "></path><path fill="rgb(32,150,242)" stroke="rgb(32,150,242)" stroke-width="1" opacity="0.49411764705882355" d="M 132.5 231 L 133 233.5 L 132 233.5 L 132.5 231 Z "></path><path fill="rgb(32,150,242)" stroke="rgb(32,150,242)" stroke-width="1" opacity="0.49411764705882355" d="M 131.5 235 L 132 238.5 L 131 238.5 L 131.5 235 Z "></path><path fill="rgb(32,150,242)" stroke="rgb(32,150,242)" stroke-width="1" opacity="0.49411764705882355" d="M 130.5 240 L 131 244.5 L 130 244.5 L 130.5 240 Z "></path><path fill="rgb(32,150,242)" stroke="rgb(32,150,242)" stroke-width="1" opacity="0.49411764705882355" d="M 352.5 242 L 353 245.5 L 357.5 252 L 362 254.5 L 360.5 255 L 354 249.5 L 352 245.5 L 352.5 242 Z "></path><path fill="rgb(32,150,242)" stroke="rgb(32,150,242)" stroke-width="1" opacity="0.49411764705882355" d="M 129.5 247 L 130 251.5 L 129 251.5 L 129.5 247 Z "></path><path fill="rgb(32,150,242)" stroke="rgb(32,150,242)" stroke-width="1" opacity="0.49411764705882355" d="M 128.5 253 L 129 266.5 L 128 266.5 L 128.5 253 Z "></path><path fill="rgb(32,150,242)" stroke="rgb(32,150,242)" stroke-width="1" opacity="0.49411764705882355" d="M 363.5 255 L 366 255.5 L 363.5 256 L 363.5 255 Z "></path><path fill="rgb(32,150,242)" stroke="rgb(32,150,242)" stroke-width="1" opacity="0.49411764705882355" d="M 128.5 274 Q 128.51 278.49 131 280.5 Q 130 282 129 279.5 Q 127.15 277.48 128.5 274 Z "></path><path fill="rgb(32,150,242)" stroke="rgb(32,150,242)" stroke-width="1" opacity="0.49411764705882355" d="M 131.5 282 L 138 286.5 L 136.5 287 L 131 282.5 L 131.5 282 Z "></path><path fill="rgb(32,150,242)" stroke="rgb(32,150,242)" stroke-width="1" opacity="0.49411764705882355" d="M 139.5 287 L 142 287.5 L 139.5 288 L 139.5 287 Z "></path><path fill="rgb(33,150,243)" stroke="rgb(33,150,243)" stroke-width="1" opacity="0.996078431372549" d="M 366.5 32 L 370 32.5 L 366.5 33 L 366.5 32 Z "></path><path fill="rgb(33,150,243)" stroke="rgb(33,150,243)" stroke-width="1" opacity="0.996078431372549" d="M 362.5 33 L 362.5 34 L 362.5 33 Z "></path><path fill="rgb(33,150,243)" stroke="rgb(33,150,243)" stroke-width="1" opacity="0.996078431372549" d="M 373.5 33 L 373.5 34 L 373.5 33 Z "></path><path fill="rgb(33,150,243)" stroke="rgb(33,150,243)" stroke-width="1" opacity="0.996078431372549" d="M 360.5 34 L 360.5 35 L 360.5 34 Z "></path><path fill="rgb(33,150,243)" stroke="rgb(33,150,243)" stroke-width="1" opacity="0.996078431372549" d="M 375.5 34 L 375.5 35 L 375.5 34 Z "></path><path fill="rgb(33,150,243)" stroke="rgb(33,150,243)" stroke-width="1" opacity="0.996078431372549" d="M 377.5 35 Q 380 36 378.5 37 Q 376 36 377.5 35 Z "></path><path fill="rgb(33,150,243)" stroke="rgb(33,150,243)" stroke-width="1" opacity="0.996078431372549" d="M 357.5 36 Q 359 37 356.5 38 Q 355 37 357.5 36 Z "></path><path fill="rgb(33,150,243)" stroke="rgb(33,150,243)" stroke-width="1" opacity="0.996078431372549" d="M 381.5 38 Q 384 39 382.5 40 Q 380 39 381.5 38 Z "></path><path fill="rgb(33,150,243)" stroke="rgb(33,150,243)" stroke-width="1" opacity="0.996078431372549" d="M 354.5 40 L 354.5 41 L 354.5 40 Z "></path><path fill="rgb(33,150,243)" stroke="rgb(33,150,243)" stroke-width="1" opacity="0.996078431372549" d="M 385.5 41 Q 388 42 386.5 43 Q 384 42 385.5 41 Z "></path><path fill="rgb(33,150,243)" stroke="rgb(33,150,243)" stroke-width="1" opacity="0.996078431372549" d="M 353.5 42 L 353.5 43 L 353.5 42 Z "></path><path fill="rgb(33,150,243)" stroke="rgb(33,150,243)" stroke-width="1" opacity="0.996078431372549" d="M 389.5 44 Q 392 45 390.5 46 Q 388 45 389.5 44 Z "></path><path fill="rgb(33,150,243)" stroke="rgb(33,150,243)" stroke-width="1" opacity="0.996078431372549" d="M 352.5 46 L 353 47.5 L 352 47.5 L 352.5 46 Z "></path><path fill="rgb(33,150,243)" stroke="rgb(33,150,243)" stroke-width="1" opacity="0.996078431372549" d="M 393.5 47 Q 396 48 394.5 49 Q 392 48 393.5 47 Z "></path><path fill="rgb(33,150,243)" stroke="rgb(33,150,243)" stroke-width="1" opacity="0.996078431372549" d="M 397.5 50 Q 400 51 398.5 52 Q 396 51 397.5 50 Z "></path><path fill="rgb(33,150,243)" stroke="rgb(33,150,243)" stroke-width="1" opacity="0.996078431372549" d="M 401.5 53 Q 404 54 402.5 55 Q 400 54 401.5 53 Z "></path><path fill="rgb(33,150,243)" stroke="rgb(33,150,243)" stroke-width="1" opacity="0.996078431372549" d="M 405.5 56 Q 408 57 406.5 58 Q 404 57 405.5 56 Z "></path><path fill="rgb(33,150,243)" stroke="rgb(33,150,243)" stroke-width="1" opacity="0.996078431372549" d="M 409.5 59 Q 412 60 410.5 61 Q 408 60 409.5 59 Z "></path><path fill="rgb(33,150,243)" stroke="rgb(33,150,243)" stroke-width="1" opacity="0.996078431372549" d="M 413.5 62 Q 416 63 414.5 64 Q 412 63 413.5 62 Z "></path><path fill="rgb(33,150,243)" stroke="rgb(33,150,243)" stroke-width="1" opacity="0.996078431372549" d="M 417.5 65 Q 420 66 418.5 67 Q 416 66 417.5 65 Z "></path><path fill="rgb(33,150,243)" stroke="rgb(33,150,243)" stroke-width="1" opacity="0.996078431372549" d="M 421.5 68 Q 424 69 422.5 70 Q 420 69 421.5 68 Z "></path><path fill="rgb(33,150,243)" stroke="rgb(33,150,243)" stroke-width="1" opacity="0.996078431372549" d="M 425.5 71 Q 428 72 426.5 73 Q 424 72 425.5 71 Z "></path><path fill="rgb(33,150,243)" stroke="rgb(33,150,243)" stroke-width="1" opacity="0.996078431372549" d="M 429.5 74 Q 432 75 430.5 76 Q 428 75 429.5 74 Z "></path><path fill="rgb(33,150,243)" stroke="rgb(33,150,243)" stroke-width="1" opacity="0.996078431372549" d="M 433.5 77 Q 436 78 434.5 79 Q 432 78 433.5 77 Z "></path><path fill="rgb(33,150,243)" stroke="rgb(33,150,243)" stroke-width="1" opacity="0.996078431372549" d="M 437.5 80 Q 440 81 438.5 82 Q 436 81 437.5 80 Z "></path><path fill="rgb(33,150,243)" stroke="rgb(33,150,243)" stroke-width="1" opacity="0.996078431372549" d="M 441.5 83 Q 444 84 442.5 85 Q 440 84 441.5 83 Z "></path><path fill="rgb(33,150,243)" stroke="rgb(33,150,243)" stroke-width="1" opacity="0.996078431372549" d="M 445.5 86 Q 448 87 446.5 88 Q 444 87 445.5 86 Z "></path><path fill="rgb(33,150,243)" stroke="rgb(33,150,243)" stroke-width="1" opacity="0.996078431372549" d="M 449.5 89 Q 452 90 450.5 91 Q 448 90 449.5 89 Z "></path><path fill="rgb(33,150,243)" stroke="rgb(33,150,243)" stroke-width="1" opacity="0.996078431372549" d="M 453.5 92 Q 456 93 454.5 94 Q 452 93 453.5 92 Z "></path><path fill="rgb(33,150,243)" stroke="rgb(33,150,243)" stroke-width="1" opacity="0.996078431372549" d="M 457.5 95 Q 460 96 458.5 97 Q 456 96 457.5 95 Z "></path><path fill="rgb(33,150,243)" stroke="rgb(33,150,243)" stroke-width="1" opacity="0.996078431372549" d="M 299.5 96 L 304 96.5 L 299.5 97 L 299.5 96 Z "></path><path fill="rgb(33,150,243)" stroke="rgb(33,150,243)" stroke-width="1" opacity="0.996078431372549" d="M 284.5 97 L 286 97.5 L 284.5 98 L 284.5 97 Z "></path><path fill="rgb(33,150,243)" stroke="rgb(33,150,243)" stroke-width="1" opacity="0.996078431372549" d="M 277.5 98 L 279 98.5 L 277.5 99 L 277.5 98 Z "></path><path fill="rgb(33,150,243)" stroke="rgb(33,150,243)" stroke-width="1" opacity="0.996078431372549" d="M 461.5 98 Q 464 99 462.5 100 Q 460 99 461.5 98 Z "></path><path fill="rgb(33,150,243)" stroke="rgb(33,150,243)" stroke-width="1" opacity="0.996078431372549" d="M 271.5 99 L 273 99.5 L 271.5 100 L 271.5 99 Z "></path><path fill="rgb(33,150,243)" stroke="rgb(33,150,243)" stroke-width="1" opacity="0.996078431372549" d="M 266.5 100 L 266.5 101 L 266.5 100 Z "></path><path fill="rgb(33,150,243)" stroke="rgb(33,150,243)" stroke-width="1" opacity="0.996078431372549" d="M 262.5 101 L 262.5 102 L 262.5 101 Z "></path><path fill="rgb(33,150,243)" stroke="rgb(33,150,243)" stroke-width="1" opacity="0.996078431372549" d="M 465.5 101 Q 468 102 466.5 103 Q 464 102 465.5 101 Z "></path><path fill="rgb(33,150,243)" stroke="rgb(33,150,243)" stroke-width="1" opacity="0.996078431372549" d="M 258.5 102 L 260 102.5 L 258.5 103 L 258.5 102 Z "></path><path fill="rgb(33,150,243)" stroke="rgb(33,150,243)" stroke-width="1" opacity="0.996078431372549" d="M 254.5 103 L 256 103.5 L 254.5 104 L 254.5 103 Z "></path><path fill="rgb(33,150,243)" stroke="rgb(33,150,243)" stroke-width="1" opacity="0.996078431372549" d="M 251.5 104 L 251.5 105 L 251.5 104 Z "></path><path fill="rgb(33,150,243)" stroke="rgb(33,150,243)" stroke-width="1" opacity="0.996078431372549" d="M 469.5 104 Q 472 105 470.5 106 Q 468 105 469.5 104 Z "></path><path fill="rgb(33,150,243)" stroke="rgb(33,150,243)" stroke-width="1" opacity="0.996078431372549" d="M 248.5 105 L 248.5 106 L 248.5 105 Z "></path><path fill="rgb(33,150,243)" stroke="rgb(33,150,243)" stroke-width="1" opacity="0.996078431372549" d="M 245.5 106 L 245.5 107 L 245.5 106 Z "></path><path fill="rgb(33,150,243)" stroke="rgb(33,150,243)" stroke-width="1" opacity="0.996078431372549" d="M 243.5 107 L 243.5 108 L 243.5 107 Z "></path><path fill="rgb(33,150,243)" stroke="rgb(33,150,243)" stroke-width="1" opacity="0.996078431372549" d="M 473.5 107 Q 476 108 474.5 109 Q 472 108 473.5 107 Z "></path><path fill="rgb(33,150,243)" stroke="rgb(33,150,243)" stroke-width="1" opacity="0.996078431372549" d="M 240.5 108 L 240.5 109 L 240.5 108 Z "></path><path fill="rgb(33,150,243)" stroke="rgb(33,150,243)" stroke-width="1" opacity="0.996078431372549" d="M 237.5 109 L 237.5 110 L 237.5 109 Z "></path><path fill="rgb(33,150,243)" stroke="rgb(33,150,243)" stroke-width="1" opacity="0.996078431372549" d="M 235.5 110 L 235.5 111 L 235.5 110 Z "></path><path fill="rgb(33,150,243)" stroke="rgb(33,150,243)" stroke-width="1" opacity="0.996078431372549" d="M 477.5 110 Q 480 111 478.5 112 Q 476 111 477.5 110 Z "></path><path fill="rgb(33,150,243)" stroke="rgb(33,150,243)" stroke-width="1" opacity="0.996078431372549" d="M 233.5 111 L 233.5 112 L 233.5 111 Z "></path><path fill="rgb(33,150,243)" stroke="rgb(33,150,243)" stroke-width="1" opacity="0.996078431372549" d="M 481.5 113 Q 484 114 482.5 115 Q 480 114 481.5 113 Z "></path><path fill="rgb(33,150,243)" stroke="rgb(33,150,243)" stroke-width="1" opacity="0.996078431372549" d="M 226.5 114 L 226.5 115 L 226.5 114 Z "></path><path fill="rgb(33,150,243)" stroke="rgb(33,150,243)" stroke-width="1" opacity="0.996078431372549" d="M 224.5 115 L 224.5 116 L 224.5 115 Z "></path><path fill="rgb(33,150,243)" stroke="rgb(33,150,243)" stroke-width="1" opacity="0.996078431372549" d="M 222.5 116 L 222.5 117 L 222.5 116 Z "></path><path fill="rgb(33,150,243)" stroke="rgb(33,150,243)" stroke-width="1" opacity="0.996078431372549" d="M 485.5 116 Q 488 117 486.5 118 Q 484 117 485.5 116 Z "></path><path fill="rgb(33,150,243)" stroke="rgb(33,150,243)" stroke-width="1" opacity="0.996078431372549" d="M 220.5 117 L 220.5 118 L 220.5 117 Z "></path><path fill="rgb(33,150,243)" stroke="rgb(33,150,243)" stroke-width="1" opacity="0.996078431372549" d="M 217.5 119 L 217.5 120 L 217.5 119 Z "></path><path fill="rgb(33,150,243)" stroke="rgb(33,150,243)" stroke-width="1" opacity="0.996078431372549" d="M 489.5 119 Q 492 120 490.5 121 Q 488 120 489.5 119 Z "></path><path fill="rgb(33,150,243)" stroke="rgb(33,150,243)" stroke-width="1" opacity="0.996078431372549" d="M 215.5 120 L 215.5 121 L 215.5 120 Z "></path><path fill="rgb(33,150,243)" stroke="rgb(33,150,243)" stroke-width="1" opacity="0.996078431372549" d="M 212.5 122 L 212.5 123 L 212.5 122 Z "></path><path fill="rgb(33,150,243)" stroke="rgb(33,150,243)" stroke-width="1" opacity="0.996078431372549" d="M 493.5 122 Q 496 123 494.5 124 Q 492 123 493.5 122 Z "></path><path fill="rgb(33,150,243)" stroke="rgb(33,150,243)" stroke-width="1" opacity="0.996078431372549" d="M 210.5 123 L 210.5 124 L 210.5 123 Z "></path><path fill="rgb(33,150,243)" stroke="rgb(33,150,243)" stroke-width="1" opacity="0.996078431372549" d="M 207.5 125 L 207.5 126 L 207.5 125 Z "></path><path fill="rgb(33,150,243)" stroke="rgb(33,150,243)" stroke-width="1" opacity="0.996078431372549" d="M 497.5 125 Q 500 126 498.5 127 Q 496 126 497.5 125 Z "></path><path fill="rgb(33,150,243)" stroke="rgb(33,150,243)" stroke-width="1" opacity="0.996078431372549" d="M 205.5 126 L 206 126.5 L 203.5 129 L 203 128.5 L 205.5 126 Z "></path><path fill="rgb(33,150,243)" stroke="rgb(33,150,243)" stroke-width="1" opacity="0.996078431372549" d="M 501.5 128 Q 504 129 502.5 130 Q 500 129 501.5 128 Z "></path><path fill="rgb(33,150,243)" stroke="rgb(33,150,243)" stroke-width="1" opacity="0.996078431372549" d="M 201.5 129 L 202 129.5 L 199.5 132 L 199 131.5 L 201.5 129 Z "></path><path fill="rgb(33,150,243)" stroke="rgb(33,150,243)" stroke-width="1" opacity="0.996078431372549" d="M 505.5 131 L 509 134.5 L 508.5 135 L 505 131.5 L 505.5 131 Z "></path><path fill="rgb(33,150,243)" stroke="rgb(33,150,243)" stroke-width="1" opacity="0.996078431372549" d="M 197.5 132 Q 199 133 196.5 134 Q 195 133 197.5 132 Z "></path><path fill="rgb(33,150,243)" stroke="rgb(33,150,243)" stroke-width="1" opacity="0.996078431372549" d="M 193.5 135 L 194 135.5 L 190.5 139 L 190 138.5 L 193.5 135 Z "></path><path fill="rgb(33,150,243)" stroke="rgb(33,150,243)" stroke-width="1" opacity="0.996078431372549" d="M 509.5 136 L 509.5 137 L 509.5 136 Z "></path><path fill="rgb(33,150,243)" stroke="rgb(33,150,243)" stroke-width="1" opacity="0.996078431372549" d="M 510.5 138 L 510.5 139 L 510.5 138 Z "></path><path fill="rgb(33,150,243)" stroke="rgb(33,150,243)" stroke-width="1" opacity="0.996078431372549" d="M 511.5 142 L 512 145.5 L 511 145.5 L 511.5 142 Z "></path><path fill="rgb(33,150,243)" stroke="rgb(33,150,243)" stroke-width="1" opacity="0.996078431372549" d="M 184.5 143 L 185 143.5 L 175.5 153 L 175 152.5 L 184.5 143 Z "></path><path fill="rgb(33,150,243)" stroke="rgb(33,150,243)" stroke-width="1" opacity="0.996078431372549" d="M 510.5 149 L 510.5 150 L 510.5 149 Z "></path><path fill="rgb(33,150,243)" stroke="rgb(33,150,243)" stroke-width="1" opacity="0.996078431372549" d="M 509.5 151 L 509.5 152 L 509.5 151 Z "></path><path fill="rgb(33,150,243)" stroke="rgb(33,150,243)" stroke-width="1" opacity="0.996078431372549" d="M 508.5 153 L 509 153.5 L 505.5 157 L 505 156.5 L 508.5 153 Z "></path><path fill="rgb(33,150,243)" stroke="rgb(33,150,243)" stroke-width="1" opacity="0.996078431372549" d="M 170.5 158 L 171 158.5 L 167.5 162 L 167 161.5 L 170.5 158 Z "></path><path fill="rgb(33,150,243)" stroke="rgb(33,150,243)" stroke-width="1" opacity="0.996078431372549" d="M 502.5 158 Q 504 159 501.5 160 Q 500 159 502.5 158 Z "></path><path fill="rgb(33,150,243)" stroke="rgb(33,150,243)" stroke-width="1" opacity="0.996078431372549" d="M 498.5 161 Q 500 162 497.5 163 Q 496 162 498.5 161 Z "></path><path fill="rgb(33,150,243)" stroke="rgb(33,150,243)" stroke-width="1" opacity="0.996078431372549" d="M 166.5 163 L 167 163.5 L 164.5 166 L 164 165.5 L 166.5 163 Z "></path><path fill="rgb(33,150,243)" stroke="rgb(33,150,243)" stroke-width="1" opacity="0.996078431372549" d="M 494.5 164 Q 496 165 493.5 166 Q 492 165 494.5 164 Z "></path><path fill="rgb(33,150,243)" stroke="rgb(33,150,243)" stroke-width="1" opacity="0.996078431372549" d="M 163.5 167 L 164 167.5 L 161.5 170 L 161 169.5 L 163.5 167 Z "></path><path fill="rgb(33,150,243)" stroke="rgb(33,150,243)" stroke-width="1" opacity="0.996078431372549" d="M 490.5 167 Q 492 168 489.5 169 Q 488 168 490.5 167 Z "></path><path fill="rgb(33,150,243)" stroke="rgb(33,150,243)" stroke-width="1" opacity="0.996078431372549" d="M 486.5 170 Q 488 171 485.5 172 Q 484 171 486.5 170 Z "></path><path fill="rgb(33,150,243)" stroke="rgb(33,150,243)" stroke-width="1" opacity="0.996078431372549" d="M 160.5 171 L 161 171.5 L 158.5 174 L 158 173.5 L 160.5 171 Z "></path><path fill="rgb(33,150,243)" stroke="rgb(33,150,243)" stroke-width="1" opacity="0.996078431372549" d="M 482.5 173 Q 484 174 481.5 175 Q 480 174 482.5 173 Z "></path><path fill="rgb(33,150,243)" stroke="rgb(33,150,243)" stroke-width="1" opacity="0.996078431372549" d="M 157.5 175 L 157.5 176 L 157.5 175 Z "></path><path fill="rgb(33,150,243)" stroke="rgb(33,150,243)" stroke-width="1" opacity="0.996078431372549" d="M 478.5 176 Q 480 177 477.5 178 Q 476 177 478.5 176 Z "></path><path fill="rgb(33,150,243)" stroke="rgb(33,150,243)" stroke-width="1" opacity="0.996078431372549" d="M 155.5 178 L 155.5 179 L 155.5 178 Z "></path><path fill="rgb(33,150,243)" stroke="rgb(33,150,243)" stroke-width="1" opacity="0.996078431372549" d="M 474.5 179 Q 476 180 473.5 181 Q 472 180 474.5 179 Z "></path><path fill="rgb(33,150,243)" stroke="rgb(33,150,243)" stroke-width="1" opacity="0.996078431372549" d="M 154.5 180 L 154.5 181 L 154.5 180 Z "></path><path fill="rgb(33,150,243)" stroke="rgb(33,150,243)" stroke-width="1" opacity="0.996078431372549" d="M 470.5 182 Q 472 183 469.5 184 Q 468 183 470.5 182 Z "></path><path fill="rgb(33,150,243)" stroke="rgb(33,150,243)" stroke-width="1" opacity="0.996078431372549" d="M 152.5 183 L 152.5 184 L 152.5 183 Z "></path><path fill="rgb(33,150,243)" stroke="rgb(33,150,243)" stroke-width="1" opacity="0.996078431372549" d="M 151.5 185 L 151.5 186 L 151.5 185 Z "></path><path fill="rgb(33,150,243)" stroke="rgb(33,150,243)" stroke-width="1" opacity="0.996078431372549" d="M 466.5 185 Q 468 186 465.5 187 Q 464 186 466.5 185 Z "></path><path fill="rgb(33,150,243)" stroke="rgb(33,150,243)" stroke-width="1" opacity="0.996078431372549" d="M 149.5 188 L 149.5 189 L 149.5 188 Z "></path><path fill="rgb(33,150,243)" stroke="rgb(33,150,243)" stroke-width="1" opacity="0.996078431372549" d="M 462.5 188 Q 464 189 461.5 190 Q 460 189 462.5 188 Z "></path><path fill="rgb(33,150,243)" stroke="rgb(33,150,243)" stroke-width="1" opacity="0.996078431372549" d="M 148.5 190 L 148.5 191 L 148.5 190 Z "></path><path fill="rgb(33,150,243)" stroke="rgb(33,150,243)" stroke-width="1" opacity="0.996078431372549" d="M 458.5 191 Q 460 192 457.5 193 Q 456 192 458.5 191 Z "></path><path fill="rgb(33,150,243)" stroke="rgb(33,150,243)" stroke-width="1" opacity="0.996078431372549" d="M 147.5 192 L 147.5 193 L 147.5 192 Z "></path><path fill="rgb(33,150,243)" stroke="rgb(33,150,243)" stroke-width="1" opacity="0.996078431372549" d="M 274.5 192 L 277 192.5 L 274.5 193 L 274.5 192 Z "></path><path fill="rgb(33,150,243)" stroke="rgb(33,150,243)" stroke-width="1" opacity="0.996078431372549" d="M 267.5 193 L 269 193.5 L 267.5 194 L 267.5 193 Z "></path><path fill="rgb(33,150,243)" stroke="rgb(33,150,243)" stroke-width="1" opacity="0.996078431372549" d="M 146.5 194 L 146.5 195 L 146.5 194 Z "></path><path fill="rgb(33,150,243)" stroke="rgb(33,150,243)" stroke-width="1" opacity="0.996078431372549" d="M 261.5 194 L 263 194.5 L 261.5 195 L 261.5 194 Z "></path><path fill="rgb(33,150,243)" stroke="rgb(33,150,243)" stroke-width="1" opacity="0.996078431372549" d="M 454.5 194 Q 456 195 453.5 196 Q 452 195 454.5 194 Z "></path><path fill="rgb(33,150,243)" stroke="rgb(33,150,243)" stroke-width="1" opacity="0.996078431372549" d="M 257.5 195 L 257.5 196 L 257.5 195 Z "></path><path fill="rgb(33,150,243)" stroke="rgb(33,150,243)" stroke-width="1" opacity="0.996078431372549" d="M 253.5 196 L 253.5 197 L 253.5 196 Z "></path><path fill="rgb(33,150,243)" stroke="rgb(33,150,243)" stroke-width="1" opacity="0.996078431372549" d="M 249.5 197 L 249.5 198 L 249.5 197 Z "></path><path fill="rgb(33,150,243)" stroke="rgb(33,150,243)" stroke-width="1" opacity="0.996078431372549" d="M 450.5 197 Q 452 198 449.5 199 Q 448 198 450.5 197 Z "></path><path fill="rgb(33,150,243)" stroke="rgb(33,150,243)" stroke-width="1" opacity="0.996078431372549" d="M 246.5 198 L 246.5 199 L 246.5 198 Z "></path><path fill="rgb(33,150,243)" stroke="rgb(33,150,243)" stroke-width="1" opacity="0.996078431372549" d="M 243.5 199 L 243.5 200 L 243.5 199 Z "></path><path fill="rgb(33,150,243)" stroke="rgb(33,150,243)" stroke-width="1" opacity="0.996078431372549" d="M 240.5 200 L 240.5 201 L 240.5 200 Z "></path><path fill="rgb(33,150,243)" stroke="rgb(33,150,243)" stroke-width="1" opacity="0.996078431372549" d="M 446.5 200 Q 448 201 445.5 202 Q 444 201 446.5 200 Z "></path><path fill="rgb(33,150,243)" stroke="rgb(33,150,243)" stroke-width="1" opacity="0.996078431372549" d="M 143.5 201 L 143.5 202 L 143.5 201 Z "></path><path fill="rgb(33,150,243)" stroke="rgb(33,150,243)" stroke-width="1" opacity="0.996078431372549" d="M 238.5 201 L 238.5 202 L 238.5 201 Z "></path><path fill="rgb(33,150,243)" stroke="rgb(33,150,243)" stroke-width="1" opacity="0.996078431372549" d="M 235.5 202 L 235.5 203 L 235.5 202 Z "></path><path fill="rgb(33,150,243)" stroke="rgb(33,150,243)" stroke-width="1" opacity="0.996078431372549" d="M 142.5 203 L 142.5 204 L 142.5 203 Z "></path><path fill="rgb(33,150,243)" stroke="rgb(33,150,243)" stroke-width="1" opacity="0.996078431372549" d="M 233.5 203 L 233.5 204 L 233.5 203 Z "></path><path fill="rgb(33,150,243)" stroke="rgb(33,150,243)" stroke-width="1" opacity="0.996078431372549" d="M 442.5 203 Q 444 204 441.5 205 Q 440 204 442.5 203 Z "></path><path fill="rgb(33,150,243)" stroke="rgb(33,150,243)" stroke-width="1" opacity="0.996078431372549" d="M 141.5 205 L 141.5 206 L 141.5 205 Z "></path><path fill="rgb(33,150,243)" stroke="rgb(33,150,243)" stroke-width="1" opacity="0.996078431372549" d="M 228.5 205 L 228.5 206 L 228.5 205 Z "></path><path fill="rgb(33,150,243)" stroke="rgb(33,150,243)" stroke-width="1" opacity="0.996078431372549" d="M 226.5 206 L 226.5 207 L 226.5 206 Z "></path><path fill="rgb(33,150,243)" stroke="rgb(33,150,243)" stroke-width="1" opacity="0.996078431372549" d="M 438.5 206 Q 440 207 437.5 208 Q 436 207 438.5 206 Z "></path><path fill="rgb(33,150,243)" stroke="rgb(33,150,243)" stroke-width="1" opacity="0.996078431372549" d="M 224.5 207 L 224.5 208 L 224.5 207 Z "></path><path fill="rgb(33,150,243)" stroke="rgb(33,150,243)" stroke-width="1" opacity="0.996078431372549" d="M 140.5 208 L 140.5 209 L 140.5 208 Z "></path><path fill="rgb(33,150,243)" stroke="rgb(33,150,243)" stroke-width="1" opacity="0.996078431372549" d="M 222.5 208 Q 224 209 221.5 210 Q 220 209 222.5 208 Z "></path><path fill="rgb(33,150,243)" stroke="rgb(33,150,243)" stroke-width="1" opacity="0.996078431372549" d="M 434.5 209 Q 436 210 433.5 211 Q 432 210 434.5 209 Z "></path><path fill="rgb(33,150,243)" stroke="rgb(33,150,243)" stroke-width="1" opacity="0.996078431372549" d="M 219.5 210 L 219.5 211 L 219.5 210 Z "></path><path fill="rgb(33,150,243)" stroke="rgb(33,150,243)" stroke-width="1" opacity="0.996078431372549" d="M 139.5 211 L 139.5 212 L 139.5 211 Z "></path><path fill="rgb(33,150,243)" stroke="rgb(33,150,243)" stroke-width="1" opacity="0.996078431372549" d="M 217.5 211 L 217.5 212 L 217.5 211 Z "></path><path fill="rgb(33,150,243)" stroke="rgb(33,150,243)" stroke-width="1" opacity="0.996078431372549" d="M 215.5 212 Q 217 213 214.5 214 Q 213 213 215.5 212 Z "></path><path fill="rgb(33,150,243)" stroke="rgb(33,150,243)" stroke-width="1" opacity="0.996078431372549" d="M 430.5 212 Q 432 213 429.5 214 Q 428 213 430.5 212 Z "></path><path fill="rgb(33,150,243)" stroke="rgb(33,150,243)" stroke-width="1" opacity="0.996078431372549" d="M 138.5 213 L 138.5 214 L 138.5 213 Z "></path><path fill="rgb(33,150,243)" stroke="rgb(33,150,243)" stroke-width="1" opacity="0.996078431372549" d="M 212.5 214 Q 214 215 211.5 216 Q 210 215 212.5 214 Z "></path><path fill="rgb(33,150,243)" stroke="rgb(33,150,243)" stroke-width="1" opacity="0.996078431372549" d="M 426.5 215 Q 428 216 425.5 217 Q 424 216 426.5 215 Z "></path><path fill="rgb(33,150,243)" stroke="rgb(33,150,243)" stroke-width="1" opacity="0.996078431372549" d="M 137.5 216 L 137.5 217 L 137.5 216 Z "></path><path fill="rgb(33,150,243)" stroke="rgb(33,150,243)" stroke-width="1" opacity="0.996078431372549" d="M 209.5 216 Q 211 217 208.5 218 Q 207 217 209.5 216 Z "></path><path fill="rgb(33,150,243)" stroke="rgb(33,150,243)" stroke-width="1" opacity="0.996078431372549" d="M 206.5 218 Q 208 219 205.5 220 Q 204 219 206.5 218 Z "></path><path fill="rgb(33,150,243)" stroke="rgb(33,150,243)" stroke-width="1" opacity="0.996078431372549" d="M 422.5 218 Q 424 219 421.5 220 Q 420 219 422.5 218 Z "></path><path fill="rgb(33,150,243)" stroke="rgb(33,150,243)" stroke-width="1" opacity="0.996078431372549" d="M 136.5 219 L 136.5 220 L 136.5 219 Z "></path><path fill="rgb(33,150,243)" stroke="rgb(33,150,243)" stroke-width="1" opacity="0.996078431372549" d="M 202.5 221 L 203 221.5 L 200.5 224 L 200 223.5 L 202.5 221 Z "></path><path fill="rgb(33,150,243)" stroke="rgb(33,150,243)" stroke-width="1" opacity="0.996078431372549" d="M 418.5 221 Q 420 222 417.5 223 Q 416 222 418.5 221 Z "></path><path fill="rgb(33,150,243)" stroke="rgb(33,150,243)" stroke-width="1" opacity="0.996078431372549" d="M 135.5 222 L 136 223.5 L 135 223.5 L 135.5 222 Z "></path><path fill="rgb(33,150,243)" stroke="rgb(33,150,243)" stroke-width="1" opacity="0.996078431372549" d="M 414.5 224 Q 416 225 413.5 226 Q 412 225 414.5 224 Z "></path><path fill="rgb(33,150,243)" stroke="rgb(33,150,243)" stroke-width="1" opacity="0.996078431372549" d="M 197.5 225 L 198 225.5 L 193.5 230 L 193 229.5 L 197.5 225 Z "></path><path fill="rgb(33,150,243)" stroke="rgb(33,150,243)" stroke-width="1" opacity="0.996078431372549" d="M 134.5 226 L 135 227.5 L 134 227.5 L 134.5 226 Z "></path><path fill="rgb(33,150,243)" stroke="rgb(33,150,243)" stroke-width="1" opacity="0.996078431372549" d="M 410.5 227 Q 412 228 409.5 229 Q 408 228 410.5 227 Z "></path><path fill="rgb(33,150,243)" stroke="rgb(33,150,243)" stroke-width="1" opacity="0.996078431372549" d="M 133.5 230 L 133.5 231 L 133.5 230 Z "></path><path fill="rgb(33,150,243)" stroke="rgb(33,150,243)" stroke-width="1" opacity="0.996078431372549" d="M 406.5 230 Q 408 231 405.5 232 Q 404 231 406.5 230 Z "></path><path fill="rgb(33,150,243)" stroke="rgb(33,150,243)" stroke-width="1" opacity="0.996078431372549" d="M 402.5 233 Q 404 234 401.5 235 Q 400 234 402.5 233 Z "></path><path fill="rgb(33,150,243)" stroke="rgb(33,150,243)" stroke-width="1" opacity="0.996078431372549" d="M 132.5 234 L 132.5 235 L 132.5 234 Z "></path><path fill="rgb(33,150,243)" stroke="rgb(33,150,243)" stroke-width="1" opacity="0.996078431372549" d="M 398.5 236 Q 400 237 397.5 238 Q 396 237 398.5 236 Z "></path><path fill="rgb(33,150,243)" stroke="rgb(33,150,243)" stroke-width="1" opacity="0.996078431372549" d="M 185.5 237 L 186 237.5 L 181.5 242 L 181 241.5 L 185.5 237 Z "></path><path fill="rgb(33,150,243)" stroke="rgb(33,150,243)" stroke-width="1" opacity="0.996078431372549" d="M 131.5 239 L 132 240.5 L 131 240.5 L 131.5 239 Z "></path><path fill="rgb(33,150,243)" stroke="rgb(33,150,243)" stroke-width="1" opacity="0.996078431372549" d="M 394.5 239 Q 396 240 393.5 241 Q 392 240 394.5 239 Z "></path><path fill="rgb(33,150,243)" stroke="rgb(33,150,243)" stroke-width="1" opacity="0.996078431372549" d="M 352.5 240 L 353 241.5 L 352 241.5 L 352.5 240 Z "></path><path fill="rgb(33,150,243)" stroke="rgb(33,150,243)" stroke-width="1" opacity="0.996078431372549" d="M 390.5 242 Q 392 243 389.5 244 Q 388 243 390.5 242 Z "></path><path fill="rgb(33,150,243)" stroke="rgb(33,150,243)" stroke-width="1" opacity="0.996078431372549" d="M 130.5 245 L 131 246.5 L 130 246.5 L 130.5 245 Z "></path><path fill="rgb(33,150,243)" stroke="rgb(33,150,243)" stroke-width="1" opacity="0.996078431372549" d="M 178.5 245 Q 180 246 177.5 247 Q 176 246 178.5 245 Z "></path><path fill="rgb(33,150,243)" stroke="rgb(33,150,243)" stroke-width="1" opacity="0.996078431372549" d="M 353.5 245 L 353.5 246 L 353.5 245 Z "></path><path fill="rgb(33,150,243)" stroke="rgb(33,150,243)" stroke-width="1" opacity="0.996078431372549" d="M 386.5 245 Q 388 246 385.5 247 Q 384 246 386.5 245 Z "></path><path fill="rgb(33,150,243)" stroke="rgb(33,150,243)" stroke-width="1" opacity="0.996078431372549" d="M 354.5 247 L 354.5 248 L 354.5 247 Z "></path><path fill="rgb(33,150,243)" stroke="rgb(33,150,243)" stroke-width="1" opacity="0.996078431372549" d="M 382.5 248 Q 384 249 381.5 250 Q 380 249 382.5 248 Z "></path><path fill="rgb(33,150,243)" stroke="rgb(33,150,243)" stroke-width="1" opacity="0.996078431372549" d="M 175.5 249 Q 177 250 174.5 251 Q 173 250 175.5 249 Z "></path><path fill="rgb(33,150,243)" stroke="rgb(33,150,243)" stroke-width="1" opacity="0.996078431372549" d="M 356.5 250 Q 359 251 357.5 252 Q 355 251 356.5 250 Z "></path><path fill="rgb(33,150,243)" stroke="rgb(33,150,243)" stroke-width="1" opacity="0.996078431372549" d="M 378.5 251 Q 380 252 377.5 253 Q 376 252 378.5 251 Z "></path><path fill="rgb(33,150,243)" stroke="rgb(33,150,243)" stroke-width="1" opacity="0.996078431372549" d="M 129.5 252 L 130 253.5 L 129 253.5 L 129.5 252 Z "></path><path fill="rgb(33,150,243)" stroke="rgb(33,150,243)" stroke-width="1" opacity="0.996078431372549" d="M 172.5 253 Q 174 254 171.5 255 Q 170 254 172.5 253 Z "></path><path fill="rgb(33,150,243)" stroke="rgb(33,150,243)" stroke-width="1" opacity="0.996078431372549" d="M 360.5 253 L 360.5 254 L 360.5 253 Z "></path><path fill="rgb(33,150,243)" stroke="rgb(33,150,243)" stroke-width="1" opacity="0.996078431372549" d="M 375.5 253 L 375.5 254 L 375.5 253 Z "></path><path fill="rgb(33,150,243)" stroke="rgb(33,150,243)" stroke-width="1" opacity="0.996078431372549" d="M 362.5 254 L 362.5 255 L 362.5 254 Z "></path><path fill="rgb(33,150,243)" stroke="rgb(33,150,243)" stroke-width="1" opacity="0.996078431372549" d="M 373.5 254 L 373.5 255 L 373.5 254 Z "></path><path fill="rgb(33,150,243)" stroke="rgb(33,150,243)" stroke-width="1" opacity="0.996078431372549" d="M 366.5 255 L 370 255.5 L 366.5 256 L 366.5 255 Z "></path><path fill="rgb(33,150,243)" stroke="rgb(33,150,243)" stroke-width="1" opacity="0.996078431372549" d="M 170.5 256 L 170.5 257 L 170.5 256 Z "></path><path fill="rgb(33,150,243)" stroke="rgb(33,150,243)" stroke-width="1" opacity="0.996078431372549" d="M 168.5 259 L 168.5 260 L 168.5 259 Z "></path><path fill="rgb(33,150,243)" stroke="rgb(33,150,243)" stroke-width="1" opacity="0.996078431372549" d="M 166.5 262 L 166.5 263 L 166.5 262 Z "></path><path fill="rgb(33,150,243)" stroke="rgb(33,150,243)" stroke-width="1" opacity="0.996078431372549" d="M 165.5 264 L 165.5 265 L 165.5 264 Z "></path><path fill="rgb(33,150,243)" stroke="rgb(33,150,243)" stroke-width="1" opacity="0.996078431372549" d="M 164.5 266 L 164.5 267 L 164.5 266 Z "></path><path fill="rgb(33,150,243)" stroke="rgb(33,150,243)" stroke-width="1" opacity="0.996078431372549" d="M 128.5 267 L 129 273.5 L 128 273.5 L 128.5 267 Z "></path><path fill="rgb(33,150,243)" stroke="rgb(33,150,243)" stroke-width="1" opacity="0.996078431372549" d="M 163.5 268 L 163.5 269 L 163.5 268 Z "></path><path fill="rgb(33,150,243)" stroke="rgb(33,150,243)" stroke-width="1" opacity="0.996078431372549" d="M 161.5 271 L 161.5 272 L 161.5 271 Z "></path><path fill="rgb(33,150,243)" stroke="rgb(33,150,243)" stroke-width="1" opacity="0.996078431372549" d="M 160.5 273 L 160.5 274 L 160.5 273 Z "></path><path fill="rgb(33,150,243)" stroke="rgb(33,150,243)" stroke-width="1" opacity="0.996078431372549" d="M 159.5 275 L 159.5 276 L 159.5 275 Z "></path><path fill="rgb(33,150,243)" stroke="rgb(33,150,243)" stroke-width="1" opacity="0.996078431372549" d="M 129.5 277 L 129.5 278 L 129.5 277 Z "></path><path fill="rgb(33,150,243)" stroke="rgb(33,150,243)" stroke-width="1" opacity="0.996078431372549" d="M 158.5 277 L 158.5 278 L 158.5 277 Z "></path><path fill="rgb(33,150,243)" stroke="rgb(33,150,243)" stroke-width="1" opacity="0.996078431372549" d="M 130.5 279 L 130.5 280 L 130.5 279 Z "></path><path fill="rgb(33,150,243)" stroke="rgb(33,150,243)" stroke-width="1" opacity="0.996078431372549" d="M 157.5 279 L 157.5 280 L 157.5 279 Z "></path><path fill="rgb(33,150,243)" stroke="rgb(33,150,243)" stroke-width="1" opacity="0.996078431372549" d="M 131.5 281 L 134 283.5 L 133.5 284 L 131 281.5 L 131.5 281 Z "></path><path fill="rgb(33,150,243)" stroke="rgb(33,150,243)" stroke-width="1" opacity="0.996078431372549" d="M 155.5 282 Q 157 283 154.5 284 Q 153 283 155.5 282 Z "></path><path fill="rgb(33,150,243)" stroke="rgb(33,150,243)" stroke-width="1" opacity="0.996078431372549" d="M 136.5 285 L 136.5 286 L 136.5 285 Z "></path><path fill="rgb(33,150,243)" stroke="rgb(33,150,243)" stroke-width="1" opacity="0.996078431372549" d="M 151.5 285 L 151.5 286 L 151.5 285 Z "></path><path fill="rgb(33,150,243)" stroke="rgb(33,150,243)" stroke-width="1" opacity="0.996078431372549" d="M 138.5 286 L 138.5 287 L 138.5 286 Z "></path><path fill="rgb(33,150,243)" stroke="rgb(33,150,243)" stroke-width="1" opacity="0.996078431372549" d="M 149.5 286 L 149.5 287 L 149.5 286 Z "></path><path fill="rgb(33,150,243)" stroke="rgb(33,150,243)" stroke-width="1" opacity="0.996078431372549" d="M 142.5 287 L 146 287.5 L 142.5 288 L 142.5 287 Z "></path><path fill="rgb(96,122,140)" stroke="rgb(96,122,140)" stroke-width="1" opacity="0.5254901960784314" d="M 24.5 64 L 30 64.5 L 21.5 66 L 21.5 65 L 24.5 64 Z "></path><path fill="rgb(96,122,140)" stroke="rgb(96,122,140)" stroke-width="1" opacity="0.5254901960784314" d="M 18.5 66 L 20 66.5 L 17.5 68 Q 16 67 18.5 66 Z "></path><path fill="rgb(96,122,140)" stroke="rgb(96,122,140)" stroke-width="1" opacity="0.5254901960784314" d="M 15.5 68 Q 17 69 14.5 70 L 6 77.5 L 4.5 80 L 5 78.5 L 9.5 72 L 15.5 68 Z "></path><path fill="rgb(96,122,140)" stroke="rgb(96,122,140)" stroke-width="1" opacity="0.5254901960784314" d="M 3.5 81 L 3 82.5 L 2.5 84 L 2 82.5 L 3.5 81 Z "></path><path fill="rgb(96,122,140)" stroke="rgb(96,122,140)" stroke-width="1" opacity="0.5254901960784314" d="M 1.5 85 L 2 87.5 L 1 88.5 L 0.5 94 L 0 88.5 L 1.5 85 Z "></path><path fill="rgb(96,122,140)" stroke="rgb(96,122,140)" stroke-width="1" opacity="0.5254901960784314" d="M 0.5 450 L 2 458.5 L 1 458.5 L 0 455.5 L 0.5 450 Z "></path><path fill="rgb(96,122,140)" stroke="rgb(96,122,140)" stroke-width="1" opacity="0.5254901960784314" d="M 415.5 450 L 416 455.5 L 414.5 459 L 414 456.5 L 415 455.5 L 415.5 450 Z "></path><path fill="rgb(96,122,140)" stroke="rgb(96,122,140)" stroke-width="1" opacity="0.5254901960784314" d="M 2.5 460 Q 6.12 468.88 13.5 474 L 20 477.5 L 18.5 478 L 8 470.5 L 3 463.5 Q 1.29 461.96 2.5 460 Z "></path><path fill="rgb(96,122,140)" stroke="rgb(96,122,140)" stroke-width="1" opacity="0.5254901960784314" d="M 413.5 460 L 414 461.5 L 406.5 472 L 396.5 478 L 396.5 477 Q 405.25 473.75 410 466.5 L 413.5 460 Z "></path><path fill="rgb(96,122,140)" stroke="rgb(96,122,140)" stroke-width="1" opacity="0.5254901960784314" d="M 21.5 478 L 30 479.5 L 24.5 480 L 21.5 479 L 21.5 478 Z "></path><path fill="rgb(96,122,140)" stroke="rgb(96,122,140)" stroke-width="1" opacity="0.5254901960784314" d="M 392.5 478 L 395 478.5 L 391.5 480 L 386.5 480 L 386.5 479 Q 391.25 480.25 392.5 478 Z "></path><path fill="rgb(96,125,139)" stroke="rgb(96,125,139)" stroke-width="1" opacity="1" d="M 30.5 64 L 160 64 L 160 128 L 64 128 L 64 416 L 352 416 L 352 289 L 416 289 L 416 449.5 L 415 450.5 L 414 459.5 L 412 463.5 L 402.5 474 L 395.5 478 L 386.5 479 L 385.5 480 L 30.5 480 L 29.5 479 L 20.5 478 L 16.5 476 L 6 466.5 L 2 459.5 L 1 450.5 L 0 449.5 L 0 94.5 L 1 93.5 L 2 84.5 L 4 80.5 L 13.5 70 L 20.5 66 L 29.5 65 L 30.5 64 Z "></path><path fill="rgb(33,150,243)" stroke="rgb(33,150,243)" stroke-width="1" opacity="1" d="M 363.5 33 L 372.5 33 L 379.5 37 L 503.5 130 L 509 135.5 L 511 139.5 L 511 148.5 Q 508.67 154.67 503.5 158 L 379.5 251 L 372.5 255 L 363.5 255 Q 358 253 355 248.5 L 352 239.5 L 352 192 L 274.5 192 L 273.5 193 L 267.5 193 L 266.5 194 L 261.5 194 L 260.5 195 L 249.5 197 L 240.5 200 L 237.5 202 L 235.5 202 L 230.5 205 L 228.5 205 L 215.5 212 Q 195.67 224.17 181 241.5 L 166 262.5 L 157 280.5 L 152.5 285 L 148.5 287 L 139.5 287 Q 134 285 131 280.5 L 129 276.5 L 129 254.5 L 130 253.5 L 130 247.5 L 131 246.5 L 132 235.5 L 135 227.5 L 136 220.5 L 140 211.5 L 141 206.5 L 150 187.5 L 158 174.5 L 171 157.5 L 189.5 139 L 206.5 126 L 219.5 118 L 238.5 109 L 243.5 108 L 252.5 104 L 259.5 103 L 263.5 101 L 272.5 100 L 273.5 99 L 278.5 99 L 279.5 98 L 285.5 98 L 286.5 97 L 303.5 97 L 304.5 96 L 352 96 L 352 48.5 L 355 39.5 L 359.5 35 L 363.5 33 Z "></path></svg>