<?xml version="1.0" encoding="UTF-8"?>
<svg xmlns="http://www.w3.org/2000/svg" version="1.1" xmlns:cc="http://creativecommons.org/ns#" xmlns:dc="http://purl.org/dc/elements/1.1/" xmlns:inkscape="http://www.inkscape.org/namespaces/inkscape" xmlns:rdf="http://www.w3.org/1999/02/22-rdf-syntax-ns#" xmlns:sodipodi="http://sodipodi.sourceforge.net/DTD/sodipodi-0.dtd" xmlns:svg="http://www.w3.org/2000/svg" viewBox="0 0 64 64">
  <defs>
    <style>
      .cls-1 {
        fill: none;
      }

      .cls-2 {
        fill: #a97c50;
      }
    </style>
  </defs>
  <!-- Generator: Adobe Illustrator 28.7.1, SVG Export Plug-In . SVG Version: 1.2.0 Build 142)  -->
  <g>
    <g id="svg2816" sodipodi:docname="Arch_Material.svg">
      <g id="_x3C_defs">
        <inkscape:perspective id="perspective2824" inkscape:persp3d-origin="32 : 21.333333 : 1" inkscape:vp_x="0 : 32 : 1" inkscape:vp_y="0 : 1000 : 0" inkscape:vp_z="64 : 32 : 1" sodipodi:type="inkscape:persp3d"/>
        <inkscape:perspective id="perspective3622" inkscape:persp3d-origin="0.5 : 0.33333333 : 1" inkscape:vp_x="0 : 0.5 : 1" inkscape:vp_y="0 : 1000 : 0" inkscape:vp_z="1 : 0.5 : 1" sodipodi:type="inkscape:persp3d"/>
        <inkscape:perspective id="perspective3622-9" inkscape:persp3d-origin="0.5 : 0.33333333 : 1" inkscape:vp_x="0 : 0.5 : 1" inkscape:vp_y="0 : 1000 : 0" inkscape:vp_z="1 : 0.5 : 1" sodipodi:type="inkscape:persp3d"/>
        <inkscape:perspective id="perspective3653" inkscape:persp3d-origin="0.5 : 0.33333333 : 1" inkscape:vp_x="0 : 0.5 : 1" inkscape:vp_y="0 : 1000 : 0" inkscape:vp_z="1 : 0.5 : 1" sodipodi:type="inkscape:persp3d"/>
        <inkscape:perspective id="perspective3675" inkscape:persp3d-origin="0.5 : 0.33333333 : 1" inkscape:vp_x="0 : 0.5 : 1" inkscape:vp_y="0 : 1000 : 0" inkscape:vp_z="1 : 0.5 : 1" sodipodi:type="inkscape:persp3d"/>
        <inkscape:perspective id="perspective3697" inkscape:persp3d-origin="0.5 : 0.33333333 : 1" inkscape:vp_x="0 : 0.5 : 1" inkscape:vp_y="0 : 1000 : 0" inkscape:vp_z="1 : 0.5 : 1" sodipodi:type="inkscape:persp3d"/>
        <inkscape:perspective id="perspective3720" inkscape:persp3d-origin="0.5 : 0.33333333 : 1" inkscape:vp_x="0 : 0.5 : 1" inkscape:vp_y="0 : 1000 : 0" inkscape:vp_z="1 : 0.5 : 1" sodipodi:type="inkscape:persp3d"/>
        <inkscape:perspective id="perspective3742" inkscape:persp3d-origin="0.5 : 0.33333333 : 1" inkscape:vp_x="0 : 0.5 : 1" inkscape:vp_y="0 : 1000 : 0" inkscape:vp_z="1 : 0.5 : 1" sodipodi:type="inkscape:persp3d"/>
        <inkscape:perspective id="perspective3764" inkscape:persp3d-origin="0.5 : 0.33333333 : 1" inkscape:vp_x="0 : 0.5 : 1" inkscape:vp_y="0 : 1000 : 0" inkscape:vp_z="1 : 0.5 : 1" sodipodi:type="inkscape:persp3d"/>
        <inkscape:perspective id="perspective3785" inkscape:persp3d-origin="0.5 : 0.33333333 : 1" inkscape:vp_x="0 : 0.5 : 1" inkscape:vp_y="0 : 1000 : 0" inkscape:vp_z="1 : 0.5 : 1" sodipodi:type="inkscape:persp3d"/>
        <inkscape:perspective id="perspective3806" inkscape:persp3d-origin="0.5 : 0.33333333 : 1" inkscape:vp_x="0 : 0.5 : 1" inkscape:vp_y="0 : 1000 : 0" inkscape:vp_z="1 : 0.5 : 1" sodipodi:type="inkscape:persp3d"/>
        <inkscape:perspective id="perspective3806-3" inkscape:persp3d-origin="0.5 : 0.33333333 : 1" inkscape:vp_x="0 : 0.5 : 1" inkscape:vp_y="0 : 1000 : 0" inkscape:vp_z="1 : 0.5 : 1" sodipodi:type="inkscape:persp3d"/>
        <inkscape:perspective id="perspective3835" inkscape:persp3d-origin="0.5 : 0.33333333 : 1" inkscape:vp_x="0 : 0.5 : 1" inkscape:vp_y="0 : 1000 : 0" inkscape:vp_z="1 : 0.5 : 1" sodipodi:type="inkscape:persp3d"/>
        <inkscape:perspective id="perspective3614" inkscape:persp3d-origin="0.5 : 0.33333333 : 1" inkscape:vp_x="0 : 0.5 : 1" inkscape:vp_y="0 : 1000 : 0" inkscape:vp_z="1 : 0.5 : 1" sodipodi:type="inkscape:persp3d"/>
        <inkscape:perspective id="perspective3614-8" inkscape:persp3d-origin="0.5 : 0.33333333 : 1" inkscape:vp_x="0 : 0.5 : 1" inkscape:vp_y="0 : 1000 : 0" inkscape:vp_z="1 : 0.5 : 1" sodipodi:type="inkscape:persp3d"/>
        <inkscape:perspective id="perspective3643" inkscape:persp3d-origin="0.5 : 0.33333333 : 1" inkscape:vp_x="0 : 0.5 : 1" inkscape:vp_y="0 : 1000 : 0" inkscape:vp_z="1 : 0.5 : 1" sodipodi:type="inkscape:persp3d"/>
        <inkscape:perspective id="perspective3643-3" inkscape:persp3d-origin="0.5 : 0.33333333 : 1" inkscape:vp_x="0 : 0.5 : 1" inkscape:vp_y="0 : 1000 : 0" inkscape:vp_z="1 : 0.5 : 1" sodipodi:type="inkscape:persp3d"/>
        <inkscape:perspective id="perspective3672" inkscape:persp3d-origin="0.5 : 0.33333333 : 1" inkscape:vp_x="0 : 0.5 : 1" inkscape:vp_y="0 : 1000 : 0" inkscape:vp_z="1 : 0.5 : 1" sodipodi:type="inkscape:persp3d"/>
        <inkscape:perspective id="perspective3672-5" inkscape:persp3d-origin="0.5 : 0.33333333 : 1" inkscape:vp_x="0 : 0.5 : 1" inkscape:vp_y="0 : 1000 : 0" inkscape:vp_z="1 : 0.5 : 1" sodipodi:type="inkscape:persp3d"/>
        <inkscape:perspective id="perspective3701" inkscape:persp3d-origin="0.5 : 0.33333333 : 1" inkscape:vp_x="0 : 0.5 : 1" inkscape:vp_y="0 : 1000 : 0" inkscape:vp_z="1 : 0.5 : 1" sodipodi:type="inkscape:persp3d"/>
        <inkscape:perspective id="perspective3701-8" inkscape:persp3d-origin="0.5 : 0.33333333 : 1" inkscape:vp_x="0 : 0.5 : 1" inkscape:vp_y="0 : 1000 : 0" inkscape:vp_z="1 : 0.5 : 1" sodipodi:type="inkscape:persp3d"/>
        <inkscape:perspective id="perspective3746" inkscape:persp3d-origin="0.5 : 0.33333333 : 1" inkscape:vp_x="0 : 0.5 : 1" inkscape:vp_y="0 : 1000 : 0" inkscape:vp_z="1 : 0.5 : 1" sodipodi:type="inkscape:persp3d"/>
        <inkscape:perspective id="perspective5224" inkscape:persp3d-origin="0.5 : 0.33333333 : 1" inkscape:vp_x="0 : 0.5 : 1" inkscape:vp_y="0 : 1000 : 0" inkscape:vp_z="1 : 0.5 : 1" sodipodi:type="inkscape:persp3d"/>
        <inkscape:perspective id="perspective5224-9" inkscape:persp3d-origin="0.5 : 0.33333333 : 1" inkscape:vp_x="0 : 0.5 : 1" inkscape:vp_y="0 : 1000 : 0" inkscape:vp_z="1 : 0.5 : 1" sodipodi:type="inkscape:persp3d"/>
        <inkscape:perspective id="perspective5224-3" inkscape:persp3d-origin="0.5 : 0.33333333 : 1" inkscape:vp_x="0 : 0.5 : 1" inkscape:vp_y="0 : 1000 : 0" inkscape:vp_z="1 : 0.5 : 1" sodipodi:type="inkscape:persp3d"/>
        <inkscape:perspective id="perspective5288" inkscape:persp3d-origin="0.5 : 0.33333333 : 1" inkscape:vp_x="0 : 0.5 : 1" inkscape:vp_y="0 : 1000 : 0" inkscape:vp_z="1 : 0.5 : 1" sodipodi:type="inkscape:persp3d"/>
        <inkscape:perspective id="perspective5323" inkscape:persp3d-origin="0.5 : 0.33333333 : 1" inkscape:vp_x="0 : 0.5 : 1" inkscape:vp_y="0 : 1000 : 0" inkscape:vp_z="1 : 0.5 : 1" sodipodi:type="inkscape:persp3d"/>
        <inkscape:perspective id="perspective5361" inkscape:persp3d-origin="0.5 : 0.33333333 : 1" inkscape:vp_x="0 : 0.5 : 1" inkscape:vp_y="0 : 1000 : 0" inkscape:vp_z="1 : 0.5 : 1" sodipodi:type="inkscape:persp3d"/>
        <inkscape:perspective id="perspective5383" inkscape:persp3d-origin="0.5 : 0.33333333 : 1" inkscape:vp_x="0 : 0.5 : 1" inkscape:vp_y="0 : 1000 : 0" inkscape:vp_z="1 : 0.5 : 1" sodipodi:type="inkscape:persp3d"/>
        <inkscape:perspective id="perspective5411" inkscape:persp3d-origin="0.5 : 0.33333333 : 1" inkscape:vp_x="0 : 0.5 : 1" inkscape:vp_y="0 : 1000 : 0" inkscape:vp_z="1 : 0.5 : 1" sodipodi:type="inkscape:persp3d"/>
      </g>
      <sodipodi:namedview id="base" bordercolor="#666666" borderopacity="1.0" inkscape:bbox-nodes="true" inkscape:bbox-paths="true" inkscape:current-layer="layer1" inkscape:cx="56.491022" inkscape:cy="18.38978" inkscape:document-units="px" inkscape:grid-bbox="true" inkscape:object-nodes="true" inkscape:object-paths="true" inkscape:pageopacity="0.0" inkscape:pageshadow="2" inkscape:snap-bbox="true" inkscape:snap-bbox-edge-midpoints="true" inkscape:snap-bbox-midpoints="true" inkscape:snap-global="true" inkscape:snap-nodes="false" inkscape:window-height="837" inkscape:window-maximized="0" inkscape:window-width="800" inkscape:window-x="0" inkscape:window-y="27" inkscape:zoom="1.0201081" pagecolor="#ffffff" showgrid="true">
        <inkscape:grid id="grid3146" empspacing="2" enabled="true" snapvisiblegridlinesonly="true" type="xygrid" visible="true"/>
      </sodipodi:namedview>
      <g>
        <path class="cls-1" d="M29.4,23.5c.3,0,.6-.1.8-.3l3.3-3.3c.4-.4.4-1.2,0-1.6-.4-.4-1.2-.4-1.6,0l-3.3,3.3c-.4.4-.4,1.2,0,1.6.2.2.5.3.8.3Z"/>
        <path class="cls-1" d="M23.3,28.3h17.5c1.2,0,2.2-1,2.2-2.2v-9.3c0-1.2-1-2.2-2.2-2.2h-17.5c-1.2,0-2.2,1-2.2,2.2v9.3c0,1.2,1,2.2,2.2,2.2ZM40.7,16.7v9.3s-17.5,0-17.5,0v-9.3s17.5,0,17.5,0Z"/>
        <path class="cls-1" d="M33,23.1c.2.2.5.3.8.3s.6-.1.8-.3l2-2c.4-.4.4-1.2,0-1.6-.4-.4-1.2-.4-1.6,0l-2,2c-.4.4-.4,1.2,0,1.6Z"/>
        <path class="cls-2" d="M60.3,47.6l-13.9-9.9c-.9,2.5-2.3,4.8-4.5,6.7-1.7,1.5-3.7,2.5-5.8,3-1.2.3-2.5.4-3.6.4-.3,0-.7,0-1,0-1.1,0-2.4,0-3.6-.4-2.1-.5-4.1-1.6-5.8-3-2.2-1.9-3.6-4.3-4.5-6.7l-13.9,9.9-2.9,13.4h62.3l-2.9-13.4Z"/>
        <path d="M40.8,26v-9.3h-17.5v9.3s17.5,0,17.5,0ZM36.5,19.6c.4.4.4,1.2,0,1.6l-2,2c-.2.2-.5.3-.8.3s-.6-.1-.8-.3c-.4-.4-.4-1.2,0-1.6l2-2c.4-.4,1.2-.4,1.6,0ZM28.6,21.5l3.3-3.3c.4-.4,1.2-.4,1.6,0,.4.4.4,1.2,0,1.6l-3.3,3.3c-.2.2-.5.3-.8.3s-.6-.1-.8-.3c-.4-.4-.4-1.2,0-1.6Z"/>
        <path d="M16.1,22.8h1.7s0,0,0,0c0,0,0,.1,0,.2,0,.8.3,5.5.4,6.2.3,4.4,1.3,9.9,5.4,13.5,1.4,1.2,3.1,2.1,4.9,2.6,1.2.3,2.4.3,3.6.3,1.2,0,2.4,0,3.6-.3,1.8-.4,3.4-1.3,4.9-2.6,4.1-3.6,5.1-9.1,5.4-13.5,0-.7.4-5.4.4-6.2,0,0,0-.1,0-.2h0s1.7,0,1.7,0c.3,0,.6-.1.8-.3.2-.2.4-.5.4-.8v-5.1c0-.4-.2-.7-.5-.9-.2-.1-.4-.2-.7-.2h-1.7c-.3-1.7-.9-2.8-1-3.1-.7-1.7-2.1-3.5-2.4-3.8-2.5-3.2-5.7-3.1-5.9-3.2h-9.5c-.2,0-3.4,0-5.9,3.1-.2.2-1.7,2.1-2.4,3.8-.2.3-.7,1.4-1.1,3.2h-1.8c-.3,0-.5,0-.7.2-.3.2-.5.5-.5.9v5.1c0,.3.1.6.4.8.2.2.5.3.8.3ZM21,16.7c0-1.2,1-2.2,2.2-2.2h17.5c1.2,0,2.2,1,2.2,2.2v9.3c0,1.2-1,2.2-2.2,2.2h-17.5c-1.2,0-2.2-1-2.2-2.2v-9.3Z"/>
      </g>
    </g>
  </g>
</svg>