<svg width="800" height="800" xmlns="http://www.w3.org/2000/svg" preserveAspectRatio="none">

 <g>
  <title>Layer 1</title>
  <g stroke="null" id="svg_1">
   <path stroke="null" id="svg_2" d="m777.55042,355.41761l-80.47242,0c0,0 -1.08747,0 -1.08747,0c-60.89805,5.0777 -78.29749,45.69932 -79.38496,67.02567l0,93.42973c0,115.77162 -94.60947,209.20134 -210.96825,209.20134c-116.35878,0 -210.96825,-93.42973 -210.96825,-209.20134l0,-93.42973c0,-5.0777 1.08747,-28.43513 -16.31198,-46.71486c-13.04958,-13.20203 -32.62396,-20.31081 -58.72312,-20.31081l-96.7844,0c-7.61226,0 -13.04958,6.09324 -13.04958,12.18649l0,412.30944c0,7.10878 6.52479,12.18649 13.04958,12.18649l754.70084,0c7.61226,0 13.04958,-6.09324 13.04958,-12.18649l0,-412.30944c0,-12.18649 -5.43733,-12.18649 -13.04958,-12.18649z" fill="#1B2E45"/>
   <path stroke="#FFFFFF" id="svg_3" d="m287.10362,391.97706l-22.83677,-9.13986c-9.78719,-4.06216 -19.57437,0 -23.92423,9.13986c-4.34986,9.13986 0,18.27973 9.78719,22.34189l38.06128,15.23311l0,55.85473c0,0 0,0 0,1.01554l0,62.96351c0,4.06216 1.08747,8.12432 4.34986,11.17095l96.7844,106.63175c3.2624,4.06216 8.69972,6.09324 14.13705,6.09324c0,0 0,0 0,0c5.43733,0 10.87465,-2.03108 14.13705,-6.09324l83.73482,-92.41419c3.2624,-4.06216 5.43733,-9.13986 4.34986,-15.23311s-5.43733,-9.13986 -9.78719,-12.18649l-170.73203,-73.11892l0,-30.46622l47.84847,19.29527l164.20724,67.02567c2.17493,1.01554 5.43733,1.01554 7.61226,1.01554c6.52479,0 14.13705,-4.06216 16.31198,-10.15541c4.34986,-9.13986 0,-18.27973 -9.78719,-22.34189l-30.44903,-12.18649l0,-38.59054c0,-7.10878 -4.34986,-13.20203 -10.87465,-16.24865l-184.86908,-72.10338l0,-30.46622l164.20724,67.02567l41.32368,17.26419c2.17493,1.01554 5.43733,1.01554 7.61226,1.01554c6.52479,0 14.13705,-4.06216 16.31198,-10.15541c4.34986,-9.13986 0,-18.27973 -9.78719,-22.34189l-30.44903,-12.18649l0,-37.575c0,-7.10878 -4.34986,-13.20203 -10.87465,-16.24865l-184.86908,-72.10338l0,-35.54392l210.96825,86.32094c2.17493,1.01554 5.43733,1.01554 7.61226,1.01554c6.52479,0 14.13705,-4.06216 16.31198,-10.15541c4.34986,-9.13986 0,-18.27973 -9.78719,-22.34189l-23.92423,-10.15541l0,-42.6527c0,-7.10878 -4.34986,-13.20203 -10.87465,-15.23311l-184.86908,-74.13446l0,-30.46622l164.20724,67.02567l47.84847,19.29527c2.17493,1.01554 5.43733,1.01554 7.61226,1.01554c6.52479,0 14.13705,-4.06216 16.31198,-10.15541c4.34986,-9.13986 0,-18.27973 -9.78719,-22.34189l-30.44903,-12.18649l0,-32.4973c0,-7.10878 -4.34986,-13.20203 -10.87465,-16.24865l-195.74373,-76.16554c-5.43733,-2.03108 -11.96212,-2.03108 -17.39944,2.03108s-8.69972,8.12432 -8.69972,14.21757l0,13.20203l-22.83677,-9.13986c-9.78719,-4.06216 -19.57437,0 -23.92423,9.13986c-4.34986,9.13986 0,18.27973 9.78719,22.34189l38.06128,15.23311l0,55.85473l0,26.40405l-22.83677,-9.13986c-9.78719,-4.06216 -19.57437,0 -23.92423,9.13986c-4.34986,9.13986 0,18.27973 9.78719,22.34189l38.06128,15.23311l0,61.94797l0,17.26419l-22.83677,-9.13986c-9.78719,-4.06216 -19.57437,0 -23.92423,9.13986c-4.34986,9.13986 0,18.27973 9.78719,22.34189l38.06128,15.23311l0,60.93243l0,19.29527l-3.2624,0z" stroke-linecap="round" stroke-linejoin="round" stroke-width="0.5" fill="#96A2B5"/>
  </g>
 </g>
</svg>