<svg width="500" height="500" version="1.1" xmlns="http://www.w3.org/2000/svg"><path fill="rgb(111,111,111)" stroke="rgb(111,111,111)" stroke-width="1" opacity="0.16470588235294117" d="M 248.5 0 Q 250 1 247.5 2 Q 246 1 248.5 0 Z "></path><path fill="rgb(111,111,111)" stroke="rgb(111,111,111)" stroke-width="1" opacity="0.16470588235294117" d="M 250.5 0 L 278 26.5 L 277.5 27 L 251.5 1 Q 249.13 0.87 250.5 0 Z "></path><path fill="rgb(111,111,111)" stroke="rgb(111,111,111)" stroke-width="1" opacity="0.16470588235294117" d="M 245.5 3 L 246 3.5 L 225.5 24 L 225 23.5 L 245.5 3 Z "></path><path fill="rgb(111,111,111)" stroke="rgb(111,111,111)" stroke-width="1" opacity="0.16470588235294117" d="M 223.5 25 Q 225 26 222.5 27 Q 221 26 223.5 25 Z "></path><path fill="rgb(111,111,111)" stroke="rgb(111,111,111)" stroke-width="1" opacity="0.16470588235294117" d="M 279.5 28 L 346 94.5 L 346 96 L 337 95.5 L 345 94.5 L 279 28.5 L 279.5 28 Z "></path><path fill="rgb(111,111,111)" stroke="rgb(111,111,111)" stroke-width="1" opacity="0.16470588235294117" d="M 219.5 29 L 219.5 30 L 219.5 29 Z "></path><path fill="rgb(111,111,111)" stroke="rgb(111,111,111)" stroke-width="1" opacity="0.16470588235294117" d="M 217.5 31 L 217.5 32 L 217.5 31 Z "></path><path fill="rgb(111,111,111)" stroke="rgb(111,111,111)" stroke-width="1" opacity="0.16470588235294117" d="M 206.5 42 L 206.5 43 L 206.5 42 Z "></path><path fill="rgb(111,111,111)" stroke="rgb(111,111,111)" stroke-width="1" opacity="0.16470588235294117" d="M 162.5 86 L 163 86.5 L 158.5 91 L 158 90.5 L 162.5 86 Z "></path><path fill="rgb(111,111,111)" stroke="rgb(111,111,111)" stroke-width="1" opacity="0.16470588235294117" d="M 156.5 92 L 155.5 95 L 163 95.5 L 154 96 Q 153.5 93.12 156.5 92 Z "></path><path fill="rgb(111,111,111)" stroke="rgb(111,111,111)" stroke-width="1" opacity="0.16470588235294117" d="M 195.5 95 L 200 95.5 L 195.5 96 L 195.5 95 Z "></path><path fill="rgb(111,111,111)" stroke="rgb(111,111,111)" stroke-width="1" opacity="0.16470588235294117" d="M 201.5 96 L 202 202 L 96 201.5 L 201 201 L 201.5 96 Z "></path><path fill="rgb(111,111,111)" stroke="rgb(111,111,111)" stroke-width="1" opacity="0.16470588235294117" d="M 298.5 97 L 299 201 L 403 201.5 L 298 202 L 298.5 97 Z "></path><path fill="rgb(111,111,111)" stroke="rgb(111,111,111)" stroke-width="1" opacity="0.16470588235294117" d="M 94.5 154 L 96 154.5 L 96 165.5 L 95 165.5 L 94.5 156 L 69.5 180 L 69 179.5 L 94.5 154 Z "></path><path fill="rgb(111,111,111)" stroke="rgb(111,111,111)" stroke-width="1" opacity="0.16470588235294117" d="M 404 154 L 405.5 154 L 416 164.5 L 415.5 165 L 405.5 155 L 405 155.5 L 404.5 170 L 404 154 Z "></path><path fill="rgb(111,111,111)" stroke="rgb(111,111,111)" stroke-width="1" opacity="0.16470588235294117" d="M 417.5 166 L 431 179.5 L 430.5 180 L 417 166.5 L 417.5 166 Z "></path><path fill="rgb(111,111,111)" stroke="rgb(111,111,111)" stroke-width="1" opacity="0.16470588235294117" d="M 67.5 181 L 68 181.5 L 56.5 193 L 56 192.5 L 67.5 181 Z "></path><path fill="rgb(111,111,111)" stroke="rgb(111,111,111)" stroke-width="1" opacity="0.16470588235294117" d="M 432.5 181 L 444 192.5 L 443.5 193 L 432 181.5 L 432.5 181 Z "></path><path fill="rgb(111,111,111)" stroke="rgb(111,111,111)" stroke-width="1" opacity="0.16470588235294117" d="M 95.5 184 L 96 197.5 L 95 197.5 L 95.5 184 Z "></path><path fill="rgb(111,111,111)" stroke="rgb(111,111,111)" stroke-width="1" opacity="0.16470588235294117" d="M 404.5 184 L 405 199.5 L 404 199.5 L 404.5 184 Z "></path><path fill="rgb(111,111,111)" stroke="rgb(111,111,111)" stroke-width="1" opacity="0.16470588235294117" d="M 54.5 194 L 55 194.5 L 28.5 221 L 28 220.5 L 54.5 194 Z "></path><path fill="rgb(111,111,111)" stroke="rgb(111,111,111)" stroke-width="1" opacity="0.16470588235294117" d="M 445.5 194 L 472 220.5 L 471.5 221 L 445 194.5 L 445.5 194 Z "></path><path fill="rgb(111,111,111)" stroke="rgb(111,111,111)" stroke-width="1" opacity="0.16470588235294117" d="M 26.5 222 L 27 222.5 L 2 247.5 L 0.5 250 L 0 248.5 L 26.5 222 Z "></path><path fill="rgb(111,111,111)" stroke="rgb(111,111,111)" stroke-width="1" opacity="0.16470588235294117" d="M 473.5 222 L 500 248.5 L 500 251.5 L 473.5 278 L 473 277.5 L 498 252.5 L 499 248.5 L 473 222.5 L 473.5 222 Z "></path><path fill="rgb(111,111,111)" stroke="rgb(111,111,111)" stroke-width="1" opacity="0.16470588235294117" d="M 0.5 251 Q 2.75 250.25 2 252.5 L 27 277.5 L 26.5 278 L 0 251.5 L 0.5 251 Z "></path><path fill="rgb(111,111,111)" stroke="rgb(111,111,111)" stroke-width="1" opacity="0.16470588235294117" d="M 28.5 279 L 55 305.5 L 54.5 306 L 28 279.5 L 28.5 279 Z "></path><path fill="rgb(111,111,111)" stroke="rgb(111,111,111)" stroke-width="1" opacity="0.16470588235294117" d="M 471.5 279 L 472 279.5 L 445.5 306 L 445 305.5 L 471.5 279 Z "></path><path fill="rgb(111,111,111)" stroke="rgb(111,111,111)" stroke-width="1" opacity="0.16470588235294117" d="M 97.5 298 L 97.5 299 L 97.5 298 Z "></path><path fill="rgb(111,111,111)" stroke="rgb(111,111,111)" stroke-width="1" opacity="0.16470588235294117" d="M 193.5 298 L 201.5 298 L 202 298.5 L 202 405 L 155 405.5 L 163 413.5 L 162.5 414 L 154 405.5 L 154 404 L 201 404 L 201 299 L 193.5 299 L 193.5 298 Z "></path><path fill="rgb(111,111,111)" stroke="rgb(111,111,111)" stroke-width="1" opacity="0.16470588235294117" d="M 299.5 298 L 305 298.5 L 299 299 L 299 404 L 345.5 404 L 346 405.5 L 339.5 412 L 339 411.5 L 345 405.5 L 344.5 405 L 299.5 405 L 298 403.5 L 298 299.5 L 299.5 298 Z "></path><path fill="rgb(111,111,111)" stroke="rgb(111,111,111)" stroke-width="1" opacity="0.16470588235294117" d="M 307.5 298 L 307.5 299 L 307.5 298 Z "></path><path fill="rgb(111,111,111)" stroke="rgb(111,111,111)" stroke-width="1" opacity="0.16470588235294117" d="M 396.5 298 L 402 298.5 L 396.5 299 L 396.5 298 Z "></path><path fill="rgb(111,111,111)" stroke="rgb(111,111,111)" stroke-width="1" opacity="0.16470588235294117" d="M 404.5 299 L 405 317.5 L 404 317.5 L 404.5 299 Z "></path><path fill="rgb(111,111,111)" stroke="rgb(111,111,111)" stroke-width="1" opacity="0.16470588235294117" d="M 95.5 300 L 96 315.5 L 95 315.5 L 95.5 300 Z "></path><path fill="rgb(111,111,111)" stroke="rgb(111,111,111)" stroke-width="1" opacity="0.16470588235294117" d="M 56.5 307 L 68 318.5 L 67.5 319 L 56 307.5 L 56.5 307 Z "></path><path fill="rgb(111,111,111)" stroke="rgb(111,111,111)" stroke-width="1" opacity="0.16470588235294117" d="M 443.5 307 L 444 307.5 L 432.5 319 L 432 318.5 L 443.5 307 Z "></path><path fill="rgb(111,111,111)" stroke="rgb(111,111,111)" stroke-width="1" opacity="0.16470588235294117" d="M 69.5 320 L 83 333.5 L 82.5 334 L 69 320.5 L 69.5 320 Z "></path><path fill="rgb(111,111,111)" stroke="rgb(111,111,111)" stroke-width="1" opacity="0.16470588235294117" d="M 430.5 320 L 431 320.5 L 417.5 334 L 417 333.5 L 430.5 320 Z "></path><path fill="rgb(111,111,111)" stroke="rgb(111,111,111)" stroke-width="1" opacity="0.16470588235294117" d="M 84.5 335 L 94.5 344 L 95.5 339 L 96 346 L 94.5 346 L 84 335.5 L 84.5 335 Z "></path><path fill="rgb(111,111,111)" stroke="rgb(111,111,111)" stroke-width="1" opacity="0.16470588235294117" d="M 415.5 335 L 416 335.5 L 405.5 346 L 404 345.5 L 404 337.5 L 405 337.5 L 405.5 345 L 415.5 335 Z "></path><path fill="rgb(111,111,111)" stroke="rgb(111,111,111)" stroke-width="1" opacity="0.16470588235294117" d="M 331.5 419 L 331.5 420 L 331.5 419 Z "></path><path fill="rgb(111,111,111)" stroke="rgb(111,111,111)" stroke-width="1" opacity="0.16470588235294117" d="M 219.5 470 L 219.5 471 L 219.5 470 Z "></path><path fill="rgb(111,111,111)" stroke="rgb(111,111,111)" stroke-width="1" opacity="0.16470588235294117" d="M 280.5 470 L 280.5 471 L 280.5 470 Z "></path><path fill="rgb(111,111,111)" stroke="rgb(111,111,111)" stroke-width="1" opacity="0.16470588235294117" d="M 274.5 476 Q 276 477 273.5 478 Q 272 477 274.5 476 Z "></path><path fill="rgb(111,111,111)" stroke="rgb(111,111,111)" stroke-width="1" opacity="0.16470588235294117" d="M 269.5 481 L 270 481.5 L 267.5 484 L 267 483.5 L 269.5 481 Z "></path><path fill="rgb(111,111,111)" stroke="rgb(111,111,111)" stroke-width="1" opacity="0.16470588235294117" d="M 255.5 495 L 256 495.5 L 251.5 500 L 250 499.5 L 255.5 495 Z "></path><path fill="rgb(111,111,111)" stroke="rgb(111,111,111)" stroke-width="1" opacity="0.16470588235294117" d="M 245.5 496 L 249 499.5 L 248.5 500 L 245 496.5 L 245.5 496 Z "></path><path fill="rgb(0,0,0)" stroke="rgb(0,0,0)" stroke-width="1" opacity="0" d="M 0 0 L 248 0.5 L 247 3 L 245.5 3 L 225 23.5 Q 225.75 25.75 223.5 25 L 220.5 29 L 219 29 L 219 31 Q 216.33 29.88 217 32.5 L 207.5 42 L 206 42 L 206 43.5 L 163.5 86 L 158 90.5 Q 158.75 92.75 156.5 92 Q 153.5 93.12 154 96 L 162.5 96 L 163.5 95 L 194.5 95 Q 195.5 97 199.5 96 L 201 95.5 L 201 201 L 96 201 L 96 154.5 L 94.5 154 L 69 179.5 L 69 181 L 67.5 181 L 56 192.5 Q 56.75 194.75 54.5 194 L 28 220.5 L 28 222 L 26.5 222 L 0.5 248 L 0 0 Z "></path><path fill="rgb(0,0,0)" stroke="rgb(0,0,0)" stroke-width="1" opacity="0" d="M 252.5 0 L 500 0 L 500 247.5 L 499.5 248 L 473.5 222 Q 471.25 222.75 472 220.5 L 445.5 194 L 444 194 L 444 192.5 L 432.5 181 Q 430.25 181.75 431 179.5 L 417.5 166 L 416 166 L 416 164.5 L 405.5 154 L 404 154.5 L 404 201.5 L 402.5 201 L 299 201 L 299 97.5 Q 296.75 96.25 299.5 95 L 336.5 95 L 337.5 96 L 346 96 L 346 94.5 L 279.5 28 Q 277.25 28.75 278 26.5 L 252 0.5 L 252.5 0 Z "></path><path fill="rgb(0,0,0)" stroke="rgb(0,0,0)" stroke-width="1" opacity="0" d="M 0.5 252 L 26.5 278 L 28 278 L 28 279.5 L 54.5 306 Q 56.75 305.25 56 307.5 L 67.5 319 L 69 319 L 69 320.5 L 82.5 334 Q 84.75 333.25 84 335.5 L 94.5 346 L 96 346 L 96.5 298 Q 97.5 300 98.5 298 L 192.5 298 L 193.5 299 L 201 299 L 201 404 L 154.5 404 L 154 405.5 L 219 469.5 Q 218.25 471.75 220.5 471 L 248 499.5 L 0 500 L 0.5 252 Z "></path><path fill="rgb(0,0,0)" stroke="rgb(0,0,0)" stroke-width="1" opacity="0" d="M 499.5 252 L 500 500 L 252 499.5 L 266.5 484 L 270 481.5 L 272.5 478 L 275 476.5 L 279.5 471 Q 281.75 471.75 281 469.5 L 330.5 420 L 332 420 L 332 418.5 L 338.5 412 L 346 405.5 L 345.5 404 L 299 404 L 299 299.5 L 298.5 298 Q 299.75 300.25 304.5 299 L 306.5 298 Q 307.5 300 308.5 298 L 395.5 298 Q 396.75 300.25 401.5 299 L 404 298 L 404 345.5 L 405.5 346 L 416 335.5 L 416 334 L 419 332.5 L 418.5 331 L 419.5 332 L 431 320.5 Q 430.25 318.25 432.5 319 L 444 307.5 L 444 306 L 445.5 306 L 472 279.5 Q 471.25 277.25 473.5 278 L 499.5 252 Z "></path><path fill="rgb(2,2,2)" stroke="rgb(2,2,2)" stroke-width="1" opacity="0.8352941176470589" d="M 249.5 0 L 250 0.5 L 155.5 95 L 155 94.5 L 249.5 0 Z "></path><path fill="rgb(2,2,2)" stroke="rgb(2,2,2)" stroke-width="1" opacity="0.8352941176470589" d="M 251.5 1 L 345 94.5 L 344.5 95 L 251 1.5 L 251.5 1 Z "></path><path fill="rgb(2,2,2)" stroke="rgb(2,2,2)" stroke-width="1" opacity="0.8352941176470589" d="M 201.5 95 L 203 95.5 L 203 201.5 L 201.5 203 L 95 203 L 95.5 198 L 96 202 L 202 202 L 202 96.5 L 201.5 95 Z "></path><path fill="rgb(2,2,2)" stroke="rgb(2,2,2)" stroke-width="1" opacity="0.8352941176470589" d="M 297 95 L 299 95.5 L 298 96.5 L 298 202 L 403.5 202 L 404 200.5 L 405 200.5 Q 405.25 203.25 404.5 203 L 298.5 203 L 297 201.5 L 297 95 Z "></path><path fill="rgb(2,2,2)" stroke="rgb(2,2,2)" stroke-width="1" opacity="0.8352941176470589" d="M 405.5 155 L 499 248.5 L 498.5 249 L 405 155.5 L 405.5 155 Z "></path><path fill="rgb(2,2,2)" stroke="rgb(2,2,2)" stroke-width="1" opacity="0.8352941176470589" d="M 91.5 158 L 92 158.5 L 2.5 248 L 2 247.5 L 91.5 158 Z "></path><path fill="rgb(2,2,2)" stroke="rgb(2,2,2)" stroke-width="1" opacity="0.8352941176470589" d="M 95.5 166 L 96 183.5 L 95 183.5 L 95.5 166 Z "></path><path fill="rgb(2,2,2)" stroke="rgb(2,2,2)" stroke-width="1" opacity="0.8352941176470589" d="M 404.5 170 L 405 183.5 L 404 183.5 L 404.5 170 Z "></path><path fill="rgb(2,2,2)" stroke="rgb(2,2,2)" stroke-width="1" opacity="0.8352941176470589" d="M 0.5 250 L 0.5 251 L 0.5 250 Z "></path><path fill="rgb(2,2,2)" stroke="rgb(2,2,2)" stroke-width="1" opacity="0.8352941176470589" d="M 2.5 252 L 92 341.5 L 91.5 342 L 2 252.5 L 2.5 252 Z "></path><path fill="rgb(2,2,2)" stroke="rgb(2,2,2)" stroke-width="1" opacity="0.8352941176470589" d="M 497.5 252 L 498 252.5 L 419.5 331 L 419 330.5 L 497.5 252 Z "></path><path fill="rgb(2,2,2)" stroke="rgb(2,2,2)" stroke-width="1" opacity="0.8352941176470589" d="M 95 297 L 203 297 L 203 404.5 L 202 404.5 L 202 298 L 96 298 L 95.5 300 L 95 297 Z "></path><path fill="rgb(2,2,2)" stroke="rgb(2,2,2)" stroke-width="1" opacity="0.8352941176470589" d="M 297 297 L 404.5 297 L 405 298.5 L 403.5 298 L 298 298 L 298 403.5 L 298.5 405 L 297 404.5 L 297 297 Z "></path><path fill="rgb(2,2,2)" stroke="rgb(2,2,2)" stroke-width="1" opacity="0.8352941176470589" d="M 95.5 316 L 96 338.5 L 95 338.5 L 95.5 316 Z "></path><path fill="rgb(2,2,2)" stroke="rgb(2,2,2)" stroke-width="1" opacity="0.8352941176470589" d="M 404.5 318 L 405 336.5 L 404 336.5 L 404.5 318 Z "></path><path fill="rgb(2,2,2)" stroke="rgb(2,2,2)" stroke-width="1" opacity="0.8352941176470589" d="M 417.5 332 L 418 332.5 L 405.5 345 L 405 344.5 L 417.5 332 Z "></path><path fill="rgb(2,2,2)" stroke="rgb(2,2,2)" stroke-width="1" opacity="0.8352941176470589" d="M 155.5 405 L 250 499.5 L 249.5 500 L 155 405.5 L 155.5 405 Z "></path><path fill="rgb(2,2,2)" stroke="rgb(2,2,2)" stroke-width="1" opacity="0.8352941176470589" d="M 344.5 405 L 345 405.5 L 251.5 499 L 251 498.5 L 344.5 405 Z "></path><path fill="rgb(0,0,0)" stroke="rgb(0,0,0)" stroke-width="1" opacity="1" d="M 249.5 1 L 344 94.5 L 297 95 L 297 201.5 L 298.5 203 L 405 203 L 405 156.5 L 405.5 156 L 499 249.5 L 405.5 344 L 405 297 L 297 297 L 297 405 L 344 405.5 L 249.5 499 L 156 405.5 L 156.5 405 L 203 405 L 203 297 L 95 297 L 95 343.5 L 94.5 344 L 1 250.5 L 94.5 156 L 95 203 L 201.5 203 L 203 201.5 L 203 95 L 156.5 95 L 156 94.5 L 249.5 1 Z "></path></svg>