<svg width="512" height="512" version="1.1" xmlns="http://www.w3.org/2000/svg"><path fill="rgb(0,0,0)" stroke="rgb(0,0,0)" stroke-width="1" opacity="0" d="M 0 0 L 512 0 L 512 512 L 0 512 L 0 0 Z M 90 64 L 78 69 L 69 78 L 64 90 L 64 423 L 69 435 L 78 443 L 90 448 L 423 448 L 435 443 L 443 435 L 448 423 L 448 90 L 443 78 L 435 69 L 423 64 L 90 64 Z "></path><path fill="rgb(255,112,67)" stroke="rgb(255,112,67)" stroke-width="1" opacity="1" d="M 96 96 L 415.5 96 L 416 96.5 L 416 128 L 96.5 128 L 96 127.5 L 96 96 Z "></path><path fill="rgb(77,208,225)" stroke="rgb(77,208,225)" stroke-width="1" opacity="1" d="M 96 160 L 184 160 L 184 224 L 96 224 L 96 160 Z "></path><path fill="rgb(77,208,225)" stroke="rgb(77,208,225)" stroke-width="1" opacity="1" d="M 328 160 L 416 160 L 416 224 L 328 224 L 328 160 Z "></path><path fill="rgb(77,208,225)" stroke="rgb(77,208,225)" stroke-width="1" opacity="1" d="M 216 256 L 296 256 L 296 320 L 216 320 L 216 256 Z "></path><path fill="rgb(77,208,225)" stroke="rgb(77,208,225)" stroke-width="1" opacity="1" d="M 96 352 L 184 352 L 184 416 L 96 416 L 96 352 Z "></path><path fill="rgb(77,208,225)" stroke="rgb(77,208,225)" stroke-width="1" opacity="1" d="M 328 352 L 416 352 L 416 416 L 328 416 L 328 352 Z "></path><path fill="rgb(224,247,250)" stroke="rgb(224,247,250)" stroke-width="1" opacity="1" d="M 216 160 L 296 160 L 296 224 L 216 224 L 216 160 Z "></path><path fill="rgb(224,247,250)" stroke="rgb(224,247,250)" stroke-width="1" opacity="1" d="M 96 256 L 184 256 L 184 320 L 96 320 L 96 256 Z "></path><path fill="rgb(224,247,250)" stroke="rgb(224,247,250)" stroke-width="1" opacity="1" d="M 328 256 L 416 256 L 416 320 L 328 320 L 328 256 Z "></path><path fill="rgb(224,247,250)" stroke="rgb(224,247,250)" stroke-width="1" opacity="1" d="M 216 352 L 296 352 L 296 416 L 216 416 L 216 352 Z "></path><path fill="rgb(0,46,82)" stroke="rgb(0,46,82)" stroke-width="1" opacity="0.7019607843137254" d="M 89.5 64 L 93 64.5 L 89.5 65 L 89.5 64 Z "></path><path fill="rgb(0,46,82)" stroke="rgb(0,46,82)" stroke-width="1" opacity="0.7019607843137254" d="M 419.5 64 L 423 64.5 L 419.5 65 L 419.5 64 Z "></path><path fill="rgb(0,46,82)" stroke="rgb(0,46,82)" stroke-width="1" opacity="0.7019607843137254" d="M 85.5 65 L 88 65.5 L 83.5 67 L 83.5 66 L 85.5 65 Z "></path><path fill="rgb(0,46,82)" stroke="rgb(0,46,82)" stroke-width="1" opacity="0.7019607843137254" d="M 424.5 65 L 429 66.5 L 427.5 67 L 424.5 66 L 424.5 65 Z "></path><path fill="rgb(0,46,82)" stroke="rgb(0,46,82)" stroke-width="1" opacity="0.7019607843137254" d="M 81.5 67 L 81.5 68 L 81.5 67 Z "></path><path fill="rgb(0,46,82)" stroke="rgb(0,46,82)" stroke-width="1" opacity="0.7019607843137254" d="M 430.5 67 L 430.5 68 L 430.5 67 Z "></path><path fill="rgb(0,46,82)" stroke="rgb(0,46,82)" stroke-width="1" opacity="0.7019607843137254" d="M 79.5 68 Q 81 69 78.5 70 L 70 77.5 L 68.5 80 L 69 78.5 L 77.5 69 L 79.5 68 Z "></path><path fill="rgb(0,46,82)" stroke="rgb(0,46,82)" stroke-width="1" opacity="0.7019607843137254" d="M 432.5 68 L 443 77.5 L 444 79.5 Q 443 81 442 78.5 L 434.5 70 Q 430.69 69.31 432.5 68 Z "></path><path fill="rgb(0,46,82)" stroke="rgb(0,46,82)" stroke-width="1" opacity="0.7019607843137254" d="M 67.5 81 L 67.5 82 L 67.5 81 Z "></path><path fill="rgb(0,46,82)" stroke="rgb(0,46,82)" stroke-width="1" opacity="0.7019607843137254" d="M 444.5 81 L 444.5 82 L 444.5 81 Z "></path><path fill="rgb(0,46,82)" stroke="rgb(0,46,82)" stroke-width="1" opacity="0.7019607843137254" d="M 66.5 83 L 67 84.5 L 65.5 88 L 65 85.5 L 66.5 83 Z "></path><path fill="rgb(0,46,82)" stroke="rgb(0,46,82)" stroke-width="1" opacity="0.7019607843137254" d="M 445.5 83 L 447 87.5 L 446 87.5 L 445.5 83 Z "></path><path fill="rgb(0,46,82)" stroke="rgb(0,46,82)" stroke-width="1" opacity="0.7019607843137254" d="M 64.5 89 L 65 92.5 L 64 92.5 L 64.5 89 Z "></path><path fill="rgb(0,46,82)" stroke="rgb(0,46,82)" stroke-width="1" opacity="0.7019607843137254" d="M 447.5 89 L 448 92.5 L 447 92.5 L 447.5 89 Z "></path><path fill="rgb(0,46,82)" stroke="rgb(0,46,82)" stroke-width="1" opacity="0.7019607843137254" d="M 64.5 419 L 65 422.5 L 64 422.5 L 64.5 419 Z "></path><path fill="rgb(0,46,82)" stroke="rgb(0,46,82)" stroke-width="1" opacity="0.7019607843137254" d="M 447.5 419 L 448 422.5 L 447 422.5 L 447.5 419 Z "></path><path fill="rgb(0,46,82)" stroke="rgb(0,46,82)" stroke-width="1" opacity="0.7019607843137254" d="M 65.5 424 L 67 428.5 L 66 428.5 Q 64.25 426.75 65.5 424 Z "></path><path fill="rgb(0,46,82)" stroke="rgb(0,46,82)" stroke-width="1" opacity="0.7019607843137254" d="M 446.5 424 L 447 426.5 L 445.5 429 L 445 427.5 L 446.5 424 Z "></path><path fill="rgb(0,46,82)" stroke="rgb(0,46,82)" stroke-width="1" opacity="0.7019607843137254" d="M 67.5 430 L 67.5 431 L 67.5 430 Z "></path><path fill="rgb(0,46,82)" stroke="rgb(0,46,82)" stroke-width="1" opacity="0.7019607843137254" d="M 444.5 430 L 444.5 431 L 444.5 430 Z "></path><path fill="rgb(0,46,82)" stroke="rgb(0,46,82)" stroke-width="1" opacity="0.7019607843137254" d="M 68.5 432 L 77.5 442 L 80 443.5 L 78.5 443 L 69 434.5 L 68.5 432 Z "></path><path fill="rgb(0,46,82)" stroke="rgb(0,46,82)" stroke-width="1" opacity="0.7019607843137254" d="M 443.5 432 L 443 433.5 L 434.5 443 L 432.5 444 Q 431 443 433.5 442 L 442 434.5 L 443.5 432 Z "></path><path fill="rgb(0,46,82)" stroke="rgb(0,46,82)" stroke-width="1" opacity="0.7019607843137254" d="M 81.5 444 L 81.5 445 L 81.5 444 Z "></path><path fill="rgb(0,46,82)" stroke="rgb(0,46,82)" stroke-width="1" opacity="0.7019607843137254" d="M 430.5 444 L 430.5 445 L 430.5 444 Z "></path><path fill="rgb(0,46,82)" stroke="rgb(0,46,82)" stroke-width="1" opacity="0.7019607843137254" d="M 83.5 445 L 88 446.5 L 85.5 447 L 83 445.5 L 83.5 445 Z "></path><path fill="rgb(0,46,82)" stroke="rgb(0,46,82)" stroke-width="1" opacity="0.7019607843137254" d="M 427.5 445 L 429 445.5 L 424.5 447 L 424.5 446 L 427.5 445 Z "></path><path fill="rgb(0,46,82)" stroke="rgb(0,46,82)" stroke-width="1" opacity="0.7019607843137254" d="M 89.5 447 L 93 447.5 L 89.5 448 L 89.5 447 Z "></path><path fill="rgb(0,46,82)" stroke="rgb(0,46,82)" stroke-width="1" opacity="0.7019607843137254" d="M 419.5 447 L 423 447.5 L 419.5 448 L 419.5 447 Z "></path><path fill="rgb(1,46,82)" stroke="rgb(1,46,82)" stroke-width="1" opacity="1" d="M 93.5 64 L 418.5 64 L 419.5 65 L 423.5 65 L 431.5 68 L 442 77.5 L 445 82.5 L 447 88.5 L 447 92.5 L 448 93.5 L 448 418.5 L 447 419.5 L 447 423.5 L 444 431.5 L 434.5 442 L 429.5 445 L 423.5 447 L 419.5 447 L 418.5 448 L 93.5 448 L 92.5 447 L 88.5 447 L 80.5 444 L 70 434.5 L 67 429.5 L 65 423.5 L 65 419.5 L 64 418.5 L 64 93.5 L 65 92.5 L 65 88.5 L 68 80.5 L 77.5 70 L 82.5 67 L 88.5 65 L 92.5 65 L 93.5 64 Z M 96 96 L 96 128 L 97 128 L 416 128 L 416 97 L 416 96 L 96 96 Z M 96 160 L 96 224 L 184 224 L 184 160 L 96 160 Z M 216 160 L 216 224 L 296 224 L 296 160 L 216 160 Z M 328 160 L 328 224 L 416 224 L 416 160 L 328 160 Z M 96 256 L 96 320 L 184 320 L 184 256 L 96 256 Z M 216 256 L 216 320 L 296 320 L 296 256 L 216 256 Z M 328 256 L 328 320 L 416 320 L 416 256 L 328 256 Z M 96 352 L 96 416 L 184 416 L 184 352 L 96 352 Z M 216 352 L 216 416 L 296 416 L 296 352 L 216 352 Z M 328 352 L 328 416 L 416 416 L 416 352 L 328 352 Z "></path></svg>